<svg width="209" height="97" viewBox="0 0 209 97" fill="none" xmlns="http://www.w3.org/2000/svg">
<path d="M104.362 32.9184L105.516 58.7496C105.516 58.7496 102.517 83.1969 103.209 83.8888C103.901 84.5807 105.746 85.9645 104.362 87.579C102.979 89.1934 97.9047 90.3466 97.674 89.4241C97.4434 88.5015 96.9821 62.2091 96.9821 62.2091L95.3677 31.0733L104.362 32.9184Z" fill="#323765"/>
<path opacity="0.2" d="M104.362 32.9184L105.516 58.7496C105.516 58.7496 102.517 83.1969 103.209 83.8888C103.901 84.5807 105.746 85.9645 104.362 87.579C102.979 89.1934 97.9047 90.3466 97.674 89.4241C97.4434 88.5015 96.9821 62.2091 96.9821 62.2091L95.3677 31.0733L104.362 32.9184Z" fill="#323765"/>
<path d="M103.209 87.1178C103.209 87.1178 108.975 91.4999 109.667 91.4999C110.359 91.4999 116.586 93.5756 112.204 94.4981C107.822 95.4207 97.2126 94.9594 96.982 93.5756C96.7514 92.1918 97.6739 87.9922 97.6739 87.9922L103.209 87.1178Z" fill="#323765"/>
<path opacity="0.2" d="M103.209 87.1178C103.209 87.1178 108.975 91.4999 109.667 91.4999C110.359 91.4999 116.586 93.5756 112.204 94.4981C107.822 95.4207 97.2126 94.9594 96.982 93.5756C96.7514 92.1918 97.6739 87.9922 97.6739 87.9922L103.209 87.1178Z" fill="#323765"/>
<path d="M117.509 13.545C117.509 13.545 120.046 14.4676 120.046 15.1595C120.046 15.8514 122.352 24.6155 122.813 25.0768C123.274 25.5381 123.505 27.6138 123.505 27.6138C123.505 27.6138 125.811 32.9184 125.35 32.9184C124.889 32.9184 120.968 31.9959 120.737 32.9184C120.507 33.841 118.662 27.1525 118.662 27.1525L114.741 19.3109L117.509 13.545Z" fill="#FFD100"/>
<path d="M125.35 33.841C125.35 33.841 124.658 38.915 122.813 39.3762C120.968 39.8375 122.813 32.9185 122.813 32.9185L125.35 33.841Z" fill="#FFB8B8"/>
<path d="M119.354 10.7774C119.354 10.7774 117.97 13.7757 117.278 15.3901C116.586 17.0046 110.128 11.2387 110.128 11.2387C110.128 11.2387 113.588 8.70168 113.588 7.5485C113.588 6.39533 119.354 10.7774 119.354 10.7774Z" fill="#FFB8B8"/>
<path d="M185.883 85.7468C184.336 91.4644 179.038 95.0055 179.038 95.0055C179.038 95.0055 176.248 89.2764 177.795 83.5588C179.342 77.8412 184.64 74.3002 184.64 74.3002C184.64 74.3002 187.43 80.0292 185.883 85.7468Z" fill="#323765"/>
<path d="M183.61 84.518C179.366 88.6496 178.848 95.0008 178.848 95.0008C178.848 95.0008 185.21 94.6534 189.455 90.5218C193.699 86.3902 194.217 80.039 194.217 80.039C194.217 80.039 187.854 80.3864 183.61 84.518Z" fill="#FFD100"/>
<path d="M130.886 95.69H130.885C125.188 95.6835 119.727 93.4176 115.698 89.3894C111.67 85.3611 109.404 79.8995 109.398 74.2027V74.2021C109.398 69.9522 110.658 65.7978 113.019 62.2641C115.38 58.7305 118.736 55.9763 122.663 54.35C126.589 52.7236 130.91 52.2981 135.078 53.1272C139.246 53.9563 143.075 56.0028 146.08 59.008C149.085 62.0131 151.132 65.8418 151.961 70.0101C152.79 74.1783 152.364 78.4988 150.738 82.4252C149.112 86.3516 146.357 89.7075 142.824 92.0686C139.29 94.4297 135.136 95.69 130.886 95.69ZM142.012 57.5507C138.719 55.3502 134.847 54.1756 130.886 54.1756C125.576 54.1816 120.486 56.2935 116.732 60.048C112.977 63.8025 110.865 68.893 110.859 74.2027C110.859 78.1634 112.034 82.0351 114.234 85.3283C116.435 88.6217 119.562 91.1885 123.222 92.7043C126.881 94.22 130.908 94.6166 134.793 93.8439C138.677 93.0712 142.246 91.1638 145.047 88.363C147.847 85.5623 149.755 81.9939 150.527 78.1091C151.3 74.2243 150.904 70.1977 149.388 66.5383C147.872 62.8789 145.305 59.7512 142.012 57.5507Z" fill="#323765" stroke="#323765"/>
<path d="M66.3076 95.69H66.307C60.6102 95.6835 55.1486 93.4176 51.1203 89.3894C47.0921 85.3611 44.8262 79.8995 44.8197 74.2027V74.2021C44.8197 69.9522 46.08 65.7978 48.4411 62.2641C50.8022 58.7305 54.1581 55.9763 58.0845 54.35C62.0109 52.7236 66.3314 52.2981 70.4996 53.1272C74.6679 53.9563 78.4966 56.0028 81.5018 59.008C84.5069 62.0131 86.5534 65.8418 87.3825 70.0101C88.2116 74.1783 87.7861 78.4988 86.1597 82.4252C84.5334 86.3516 81.7792 89.7075 78.2456 92.0686C74.7119 94.4297 70.5575 95.69 66.3076 95.69ZM77.4337 57.5507C74.1405 55.3502 70.2686 54.1756 66.3079 54.1756C60.9983 54.1816 55.9079 56.2935 52.1534 60.048C48.3989 63.8025 46.287 68.893 46.281 74.2027C46.2811 78.1634 47.4557 82.0351 49.6561 85.3283C51.8566 88.6217 54.9844 91.1885 58.6437 92.7043C62.3031 94.22 66.3298 94.6166 70.2146 93.8439C74.0993 93.0712 77.6677 91.1638 80.4685 88.363C83.2693 85.5623 85.1766 81.9939 85.9493 78.1091C86.722 74.2243 86.3255 70.1977 84.8097 66.5383C83.2939 62.8789 80.7271 59.7512 77.4337 57.5507Z" fill="#323765" stroke="#323765"/>
<path d="M130.885 75.5859C130.121 75.5859 129.501 74.9664 129.501 74.2021C129.501 73.4379 130.121 72.8183 130.885 72.8183C131.649 72.8183 132.269 73.4379 132.269 74.2021C132.269 74.9664 131.649 75.5859 130.885 75.5859Z" fill="#323765"/>
<path d="M65.8462 75.5859C65.0819 75.5859 64.4624 74.9664 64.4624 74.2021C64.4624 73.4379 65.0819 72.8183 65.8462 72.8183C66.6104 72.8183 67.23 73.4379 67.23 74.2021C67.23 74.9664 66.6104 75.5859 65.8462 75.5859Z" fill="#323765"/>
<path d="M129.024 72.6768L128.564 72.8731L128.368 72.413L116.569 44.7294L83.5489 45.4034L66.9227 71.3673L66.6529 71.7885L66.2318 71.5187L65.8435 71.2698L65.4226 71.0001L65.6921 70.5792L82.528 44.2875L82.5285 44.2867L82.5942 44.1837L82.7381 43.9581L83.0056 43.9527L117.188 43.2552L117.526 43.2483L117.658 43.5591L129.712 71.8398L129.908 72.2996L129.449 72.4958L129.024 72.6768Z" fill="#323765" stroke="#323765"/>
<path d="M93.398 77.337L93.6045 78.0651L92.8538 77.9694L68.9828 74.9271L68.487 74.8639L68.55 74.3681L68.6081 73.9103L68.6711 73.414L69.1673 73.4773L91.5952 76.3358L83.1328 46.4945L82.9964 46.0134L83.4776 45.8771L83.9213 45.7514L84.4022 45.6151L84.5386 46.096L93.398 77.337Z" fill="#323765" stroke="#323765"/>
<path d="M117.679 50.3963L118.029 50.0394L118.386 50.3895L118.715 50.7125L119.072 51.0627L118.722 51.4196L94.9667 75.6363L94.6166 75.9933L94.2596 75.6431L93.9304 75.3201L93.5734 74.97L93.9236 74.6131L117.679 50.3963Z" fill="#323765" stroke="#323765"/>
<path d="M81.6218 38.3716L82.1042 38.2403L82.2356 38.7227L83.6172 43.7973L83.7486 44.2797L83.2661 44.4111L82.8211 44.5323L82.3386 44.6636L82.2073 44.1812L80.8256 39.1066L80.6943 38.6242L81.1767 38.4928L81.6218 38.3716Z" fill="#323765" stroke="#323765"/>
<path d="M116.472 42.9132L115.984 43.0238L115.874 42.5364L114.656 37.1808L114.518 36.57H115.144H118.623V34.533V34.033H119.123H119.584H120.084V34.533V37.5313V38.0313H119.584H116.348L117.299 42.2126L117.41 42.7003L116.922 42.811L116.472 42.9132Z" fill="#323765" stroke="#323765"/>
<path d="M90.063 34.3023C90.063 34.3023 90.063 32.9185 87.0647 33.6104C84.0665 34.3023 74.841 36.1473 74.1491 35.9167C73.4572 35.6861 73.6879 37.3005 76.6861 37.9924C79.6844 38.6843 83.1439 37.0699 83.8358 36.6086C84.5277 36.1473 90.063 34.3023 90.063 34.3023Z" fill="#323765"/>
<path d="M98.3658 75.586H104.362V77.8924H98.3658V75.586Z" fill="#FFD100"/>
<path d="M92.6002 82.3131H92.5996C91.2443 82.3116 89.9448 81.7725 88.9865 80.8141C88.0281 79.8558 87.489 78.5563 87.4875 77.201V77.2004C87.4875 76.1892 87.7873 75.2007 88.3491 74.3599C88.9109 73.5192 89.7094 72.8639 90.6436 72.4769C91.5779 72.0899 92.6059 71.9887 93.5976 72.186C94.5894 72.3832 95.5004 72.8702 96.2154 73.5852C96.9304 74.3002 97.4174 75.2112 97.6146 76.203C97.8119 77.1947 97.7107 78.2227 97.3237 79.157C96.9367 80.0912 96.2814 80.8897 95.4407 81.4515C94.5999 82.0133 93.6114 82.3131 92.6002 82.3131ZM94.6288 74.1644C94.0284 73.7632 93.3225 73.549 92.6005 73.549C91.6323 73.5502 90.7042 73.9353 90.0196 74.6199C89.335 75.3045 88.9499 76.2328 88.9487 77.201C88.9489 77.923 89.163 78.6287 89.5641 79.2291C89.9653 79.8295 90.5356 80.2975 91.2028 80.5739C91.8701 80.8503 92.6042 80.9226 93.3125 80.7817C94.0208 80.6408 94.6715 80.293 95.1821 79.7824C95.6928 79.2717 96.0406 78.6211 96.1815 77.9128C96.3224 77.2045 96.25 76.4703 95.9737 75.8031C95.6973 75.1359 95.2293 74.5656 94.6288 74.1644Z" fill="#323765" stroke="#323765"/>
<path d="M117.278 13.0838C114.221 13.0838 111.742 10.6056 111.742 7.54856C111.742 4.49153 114.221 2.01331 117.278 2.01331C120.335 2.01331 122.813 4.49153 122.813 7.54856C122.813 10.6056 120.335 13.0838 117.278 13.0838Z" fill="#FFB8B8"/>
<path d="M99.7494 33.3797C99.7494 33.3797 115.663 42.6051 115.433 45.6034C115.202 48.6017 103.209 64.9768 103.209 64.9768C103.209 64.9768 102.286 69.8201 101.364 69.8201C100.441 69.8201 94.6754 71.8959 94.4447 70.512C94.2141 69.1282 96.2898 67.5138 96.0592 66.5912C95.8286 65.6687 106.207 48.8323 106.207 48.8323C106.207 48.8323 83.9953 40.5294 88.6434 33.3797C93.2916 26.23 99.7494 33.3797 99.7494 33.3797Z" fill="#323765"/>
<path d="M99.2886 68.8976C99.2886 68.8976 102.056 69.5895 102.518 70.512C102.979 71.4346 111.051 74.4328 108.745 75.1247C106.438 75.8166 93.0615 76.0473 92.6002 75.586C92.1389 75.1247 92.6002 69.7711 94.4453 69.7956C96.2904 69.8201 98.3661 70.512 99.2886 68.8976Z" fill="#323765"/>
<path d="M117.278 16.082L112.088 9.73957C112.088 9.73957 106.207 8.0098 103.67 11.4693C101.133 14.9289 94.2142 23.4624 91.9079 25.3075C89.6015 27.1525 86.3726 34.3022 87.5258 34.5329C88.679 34.7635 95.1368 31.9959 97.6738 33.841C100.211 35.6861 105.054 35.9167 105.285 34.9942C105.515 34.0716 119.354 18.619 119.354 16.5433C119.354 14.4676 117.879 14.0222 117.879 14.0222L117.278 16.082Z" fill="#FFD100"/>
<path d="M114.491 34.4187L121.449 31.9587C121.81 31.8313 122.205 32.0201 122.332 32.3804C122.46 32.7406 122.271 33.136 121.91 33.2633L114.952 35.7234C114.592 35.8507 114.197 35.6619 114.069 35.3017C113.942 34.9414 114.131 34.5461 114.491 34.4187Z" fill="#323765"/>
<path d="M130.194 31.5347C130.194 31.5347 138.266 33.8411 137.574 36.3781C136.882 38.9151 129.502 33.3798 129.502 33.3798L130.194 31.5347Z" fill="#FFB8B8"/>
<path d="M109.206 11.4694C109.206 11.4694 112.435 14.237 113.127 17.4659C113.818 20.6948 117.278 26.4607 117.278 26.4607L131.347 31.0734C131.347 31.0734 132.269 35.4555 130.885 35.4555C129.502 35.4555 114.049 32.2266 113.588 31.5347C113.127 30.8428 103.209 17.6965 103.209 17.6965C103.209 17.6965 102.287 10.5468 109.206 11.4694Z" fill="#FFD100"/>
<path d="M120.716 1.14184C120.853 1.25933 121.016 1.34128 121.192 1.38039C121.28 1.39611 121.371 1.37631 121.444 1.32529C121.518 1.27427 121.568 1.19618 121.585 1.10808C121.686 1.39019 121.875 1.63254 122.124 1.7999C122.388 1.93755 122.797 1.82213 122.835 1.52675C122.873 1.75103 122.972 1.96047 123.122 2.13236C123.199 2.21459 123.306 2.26283 123.419 2.26661C123.532 2.27039 123.643 2.22941 123.726 2.15256C123.61 2.78462 123.681 3.43463 123.645 4.07616C123.609 4.71769 123.438 5.39781 122.953 5.81966C122.246 6.43488 121.183 6.28304 120.253 6.16648C120.113 6.13698 119.967 6.14496 119.83 6.18963C119.482 6.33795 119.498 6.82261 119.493 7.20101C119.465 7.86496 119.202 8.49736 118.751 8.98592C118.301 9.47448 117.692 9.78758 117.032 9.86962C116.663 9.92659 116.287 9.83468 115.985 9.6141C115.721 9.39033 115.587 9.02561 115.284 8.85752C114.792 8.58408 114.195 8.98286 113.835 9.41584C113.476 9.84882 113.121 10.3814 112.564 10.4607C111.827 10.5655 111.265 9.8143 110.99 9.12259C110.61 8.15311 110.428 7.11736 110.454 6.07639C110.481 5.03543 110.716 4.01033 111.145 3.06154C112.684 -0.293506 117.942 -0.82417 120.716 1.14184Z" fill="#323765"/>
<path d="M23.3193 95.1805L23.7293 94.9688C18.4057 84.677 21.2524 71.3113 24.5777 61.9114C26.8357 55.5932 29.7157 49.515 33.1753 43.7662L32.7854 43.5198C29.3078 49.2978 26.4128 55.407 24.143 61.7573C20.7871 71.2433 17.9204 84.7423 23.3193 95.1805Z" fill="#323765"/>
<path d="M19.3714 43.6024L22.3638 59.9786L21.9102 60.0615L18.9178 43.6853L19.3714 43.6024Z" fill="#323765"/>
<path d="M39.2696 57.5546L39.6074 57.8689L24.1549 74.4747L23.8171 74.1604L39.2696 57.5546Z" fill="#323765"/>
<path d="M11.4897 75.7955L19.3276 86.638L18.9538 86.9083L11.1158 76.0658L11.4897 75.7955Z" fill="#323765"/>
<path d="M17.9895 39.2609C16.7158 39.2609 15.6832 38.2283 15.6832 36.9545C15.6832 35.6808 16.7158 34.6482 17.9895 34.6482C19.2633 34.6482 20.2959 35.6808 20.2959 36.9545C20.2959 38.2283 19.2633 39.2609 17.9895 39.2609Z" fill="#FFD100"/>
<path d="M43.1287 57.0198C41.8549 57.0198 40.8223 55.9872 40.8223 54.7134C40.8223 53.4396 41.8549 52.407 43.1287 52.407C44.4025 52.407 45.4351 53.4396 45.4351 54.7134C45.4351 55.9872 44.4025 57.0198 43.1287 57.0198Z" fill="#323765"/>
<path d="M32.9808 59.3261C31.707 59.3261 30.6744 58.2936 30.6744 57.0198C30.6744 55.746 31.707 54.7134 32.9808 54.7134C34.2545 54.7134 35.2871 55.746 35.2871 57.0198C35.2871 58.2936 34.2545 59.3261 32.9808 59.3261Z" fill="#323765"/>
<path d="M37.5935 68.321C36.3198 68.321 35.2872 67.2884 35.2872 66.0146C35.2872 64.7408 36.3198 63.7083 37.5935 63.7083C38.8673 63.7083 39.8999 64.7408 39.8999 66.0146C39.8999 67.2884 38.8673 68.321 37.5935 68.321Z" fill="#FFD100"/>
<path d="M8.76396 74.0868C7.49019 74.0868 6.4576 73.0542 6.4576 71.7805C6.4576 70.5067 7.49019 69.4741 8.76396 69.4741C10.0377 69.4741 11.0703 70.5067 11.0703 71.7805C11.0703 73.0542 10.0377 74.0868 8.76396 74.0868Z" fill="#323765"/>
<path d="M16.3748 76.6238C15.101 76.6238 14.0684 75.5912 14.0684 74.3175C14.0684 73.0437 15.101 72.0111 16.3748 72.0111C17.6486 72.0111 18.6812 73.0437 18.6812 74.3175C18.6812 75.5912 17.6486 76.6238 16.3748 76.6238Z" fill="#323765"/>
<path d="M11.0701 84.0042C9.79635 84.0042 8.76375 82.9716 8.76375 81.6978C8.76375 80.4241 9.79635 79.3915 11.0701 79.3915C12.3439 79.3915 13.3765 80.4241 13.3765 81.6978C13.3765 82.9716 12.3439 84.0042 11.0701 84.0042Z" fill="#323765"/>
<path d="M35.2869 42.0285C34.0131 42.0285 32.9806 40.9959 32.9806 39.7221C32.9806 38.4484 34.0131 37.4158 35.2869 37.4158C36.5607 37.4158 37.5933 38.4484 37.5933 39.7221C37.5933 40.9959 36.5607 42.0285 35.2869 42.0285Z" fill="#323765"/>
<path d="M-0.000183105 95.6719H208.264V96.1331H-0.000183105V95.6719Z" fill="#323765"/>
</svg>
