<svg width="90" height="90" viewBox="0 0 90 90" fill="none" xmlns="http://www.w3.org/2000/svg">
<path d="M45 90C69.8528 90 90 69.8528 90 45C90 20.1472 69.8528 0 45 0C20.1472 0 0 20.1472 0 45C0 69.8528 20.1472 90 45 90Z" fill="#FF610F"/>
<path opacity="0.2" d="M45.0001 77.8457C37.4011 77.8456 30.0373 75.2108 24.1632 70.39C18.2892 65.5692 14.2684 58.8609 12.7859 51.4079C11.3035 43.955 12.4511 36.2186 16.0333 29.5169C19.6154 22.8152 25.4104 17.5629 32.431 14.655C39.4515 11.747 47.2631 11.3633 54.5349 13.5691C61.8066 15.775 68.0886 20.434 72.3103 26.7523C76.532 33.0706 78.4324 40.6573 77.6876 48.2197C76.9427 55.782 73.5988 62.8522 68.2255 68.2255C65.1826 71.285 61.5631 73.7107 57.5764 75.362C53.5897 77.0133 49.3152 77.8575 45.0001 77.8457ZM45.0001 14.1801C28.0059 14.1801 14.1801 28.0058 14.1801 45C14.1801 61.9941 28.0059 75.82 45.0001 75.82C61.9942 75.82 75.82 61.9941 75.82 45C75.82 28.0058 61.9942 14.1801 45.0001 14.1801Z" fill="black"/>
<path d="M44.9998 76.8328C62.5806 76.8328 76.8326 62.5808 76.8326 45C76.8326 27.4193 62.5806 13.1672 44.9998 13.1672C27.419 13.1672 13.167 27.4193 13.167 45C13.167 62.5808 27.419 76.8328 44.9998 76.8328Z" fill="#323765"/>
<path d="M21.3266 32.2714C21.0852 31.7985 20.9394 31.2828 20.8974 30.7535C20.8554 30.2243 20.9182 29.692 21.0821 29.187C21.246 28.682 21.5078 28.2143 21.8526 27.8106C22.1974 27.4069 22.6183 27.0751 23.0914 26.8342C23.5645 26.5933 24.0804 26.448 24.6097 26.4066C25.139 26.3652 25.6712 26.4285 26.176 26.593C26.6808 26.7574 27.1483 27.0197 27.5516 27.3649C27.9549 27.7101 28.2863 28.1314 28.5267 28.6047L37.5203 46.2654C37.7617 46.7382 37.9076 47.254 37.9495 47.7832C37.9915 48.3124 37.9287 48.8448 37.7648 49.3497C37.6009 49.8547 37.3391 50.3224 36.9943 50.7261C36.6495 51.1298 36.2286 51.4616 35.7555 51.7025C35.2824 51.9434 34.7665 52.0887 34.2372 52.1301C33.7079 52.1715 33.1757 52.1082 32.6709 51.9438C32.1661 51.7793 31.6987 51.517 31.2953 51.1718C30.892 50.8266 30.5606 50.4053 30.3202 49.932L21.3266 32.2714Z" fill="#FF6584"/>
<path opacity="0.2" d="M22.3296 34.2412L21.9146 33.4261C23.9861 31.8165 26.4187 30.6327 29.1147 29.7595L29.5297 30.5746C26.6119 31.1822 24.1295 32.3067 22.3296 34.2412Z" fill="black"/>
<path opacity="0.2" d="M24.2667 38.0451L23.8516 37.23C25.9231 35.6203 28.3557 34.4366 31.0517 33.5634L31.4668 34.3785C28.5489 34.9861 26.0666 36.1105 24.2667 38.0451Z" fill="black"/>
<path opacity="0.2" d="M26.2037 41.8489L25.7886 41.0337C27.8602 39.4241 30.2928 38.2403 32.9887 37.3671L33.4038 38.1822C30.486 38.7898 28.0036 39.9143 26.2037 41.8489Z" fill="black"/>
<path opacity="0.2" d="M28.1407 45.6527L27.7256 44.8376C29.7972 43.228 32.2298 42.0442 34.9257 41.171L35.3408 41.9861C32.423 42.5937 29.9406 43.7181 28.1407 45.6527Z" fill="black"/>
<path opacity="0.2" d="M30.0782 49.4566L29.6631 48.6415C31.7347 47.0318 34.1673 45.8481 36.8632 44.9749L37.2783 45.79C34.3605 46.3976 31.8781 47.522 30.0782 49.4566Z" fill="black"/>
<path d="M14.5794 38.8829C14.338 38.4101 14.1922 37.8943 14.1503 37.3651C14.1084 36.8359 14.1712 36.3037 14.3351 35.7987C14.499 35.2938 14.7609 34.8262 15.1056 34.4225C15.4504 34.0188 15.8713 33.687 16.3444 33.4461C16.8174 33.2052 17.3333 33.0599 17.8625 33.0185C18.3918 32.9771 18.924 33.0404 19.4288 33.2048C19.9335 33.3692 20.4009 33.6315 20.8043 33.9766C21.2076 34.3218 21.539 34.743 21.7795 35.2163L30.773 52.8769C31.2579 53.8316 31.344 54.9397 31.0124 55.9577C30.6807 56.9758 29.9585 57.8206 29.0044 58.3065C28.0502 58.7924 26.9422 58.8796 25.9238 58.5491C24.9054 58.2185 24.0598 57.4972 23.5729 56.5435L14.5794 38.8829Z" fill="#FF6584"/>
<path opacity="0.2" d="M15.5826 40.8527L15.1675 40.0376C17.2391 38.428 19.6717 37.2442 22.3676 36.371L22.7827 37.1861C19.8649 37.7937 17.3825 38.9181 15.5826 40.8527Z" fill="black"/>
<path opacity="0.2" d="M17.5196 44.6565L17.1045 43.8414C19.1761 42.2318 21.6087 41.048 24.3046 40.1748L24.7197 40.9899C21.8019 41.5975 19.3195 42.722 17.5196 44.6565Z" fill="black"/>
<path opacity="0.2" d="M19.4566 48.4604L19.0415 47.6453C21.1131 46.0356 23.5457 44.8519 26.2416 43.9786L26.6567 44.7937C23.7389 45.4014 21.2565 46.5258 19.4566 48.4604Z" fill="black"/>
<path opacity="0.2" d="M21.3936 52.2641L20.9785 51.449C23.0501 49.8394 25.4827 48.6556 28.1786 47.7824L28.5937 48.5975C25.6759 49.2051 23.1935 50.3296 21.3936 52.2641Z" fill="black"/>
<path opacity="0.2" d="M23.3306 56.068L22.9155 55.2529C24.9871 53.6433 27.4197 52.4595 30.1156 51.5863L30.5307 52.4014C27.6129 53.009 25.1305 54.1335 23.3306 56.068Z" fill="black"/>
<path d="M66.27 46.0129L66.2984 46.0129C67.2671 46.021 68.2157 45.737 69.0206 45.1979C69.8254 44.6588 70.4491 43.8896 70.8103 42.9907C71.553 41.1132 71.9273 39.1102 71.9128 37.0912C71.8623 28.5454 64.9098 21.5346 56.3647 21.4163C52.7255 21.3654 49.1806 22.5745 46.331 24.8385C43.4814 27.1026 41.5024 30.2825 40.7295 33.839C39.9565 37.3955 40.4372 41.1099 42.0901 44.3525C43.7429 47.5951 46.4662 50.1664 49.7982 51.6306C50.6788 52.0204 51.6566 52.1351 52.6035 51.9595C53.5503 51.7839 54.422 51.3263 55.1043 50.6467C56.5675 49.1757 58.3075 48.0089 60.2239 47.2136C62.1403 46.4183 64.1951 46.0102 66.27 46.0129Z" fill="#E6E6E6"/>
<path d="M58.167 41.238C61.0439 41.238 63.376 38.9058 63.376 36.0289C63.376 33.1521 61.0439 30.8199 58.167 30.8199C55.2902 30.8199 52.958 33.1521 52.958 36.0289C52.958 38.9058 55.2902 41.238 58.167 41.238Z" fill="#F9A825"/>
<path d="M46.8461 35.4432C47.185 35.4432 47.4597 35.1684 47.4597 34.8295C47.4597 34.4906 47.185 34.2159 46.8461 34.2159C46.5072 34.2159 46.2324 34.4906 46.2324 34.8295C46.2324 35.1684 46.5072 35.4432 46.8461 35.4432Z" fill="#323765"/>
<path d="M26.5892 36.022C26.9281 36.022 27.2029 35.7472 27.2029 35.4083C27.2029 35.0694 26.9281 34.7947 26.5892 34.7947C26.2503 34.7947 25.9756 35.0694 25.9756 35.4083C25.9756 35.7472 26.2503 36.022 26.5892 36.022Z" fill="#323765"/>
<path d="M50.1166 29.0836C50.4555 29.0836 50.7302 28.8089 50.7302 28.47C50.7302 28.1311 50.4555 27.8563 50.1166 27.8563C49.7777 27.8563 49.5029 28.1311 49.5029 28.47C49.5029 28.8089 49.7777 29.0836 50.1166 29.0836Z" fill="#323765"/>
<path d="M50.099 46.7712C50.4379 46.7712 50.7126 46.4965 50.7126 46.1576C50.7126 45.8187 50.4379 45.5439 50.099 45.5439C49.7601 45.5439 49.4854 45.8187 49.4854 46.1576C49.4854 46.4965 49.7601 46.7712 50.099 46.7712Z" fill="#323765"/>
<path d="M62.2533 27.8162C62.5922 27.8162 62.8669 27.5415 62.8669 27.2026C62.8669 26.8637 62.5922 26.5889 62.2533 26.5889C61.9144 26.5889 61.6396 26.8637 61.6396 27.2026C61.6396 27.5415 61.9144 27.8162 62.2533 27.8162Z" fill="#323765"/>
<path d="M22.6068 44.6008C22.9457 44.6008 23.2205 44.326 23.2205 43.9871C23.2205 43.6482 22.9457 43.3735 22.6068 43.3735C22.2679 43.3735 21.9932 43.6482 21.9932 43.9871C21.9932 44.326 22.2679 44.6008 22.6068 44.6008Z" fill="#323765"/>
<path d="M27.0927 53.4272C27.4316 53.4272 27.7063 53.1524 27.7063 52.8135C27.7063 52.4746 27.4316 52.1999 27.0927 52.1999C26.7537 52.1999 26.479 52.4746 26.479 52.8135C26.479 53.1524 26.7537 53.4272 27.0927 53.4272Z" fill="#323765"/>
<path d="M55.2731 56.2862C56.5517 56.2862 57.5883 55.2497 57.5883 53.9711C57.5883 52.6925 56.5517 51.6559 55.2731 51.6559C53.9945 51.6559 52.958 52.6925 52.958 53.9711C52.958 55.2497 53.9945 56.2862 55.2731 56.2862Z" fill="#FF6584"/>
<path opacity="0.2" d="M57.0098 54.1158C57.0098 54.5763 56.8268 55.0179 56.5012 55.3436C56.1756 55.6692 55.7339 55.8521 55.2734 55.8521C54.8129 55.8521 54.3713 55.6692 54.0457 55.3436C53.72 55.0179 53.5371 54.5763 53.5371 54.1158" fill="black"/>
<path opacity="0.2" d="M53.5371 53.8264C53.5371 53.3659 53.72 52.9242 54.0457 52.5986C54.3713 52.273 54.8129 52.09 55.2734 52.09C55.7339 52.09 56.1756 52.273 56.5012 52.5986C56.8268 52.9242 57.0098 53.3659 57.0098 53.8264" fill="black"/>
<path d="M54.405 53.3923C54.4849 53.3923 54.5497 53.2951 54.5497 53.1752C54.5497 53.0554 54.4849 52.9582 54.405 52.9582C54.325 52.9582 54.2603 53.0554 54.2603 53.1752C54.2603 53.2951 54.325 53.3923 54.405 53.3923Z" fill="#FF6584"/>
<path d="M55.2736 53.1029C55.3535 53.1029 55.4183 53.0057 55.4183 52.8859C55.4183 52.766 55.3535 52.6688 55.2736 52.6688C55.1937 52.6688 55.1289 52.766 55.1289 52.8859C55.1289 53.0057 55.1937 53.1029 55.2736 53.1029Z" fill="#FF6584"/>
<path d="M55.2736 54.9839C55.3535 54.9839 55.4183 54.8868 55.4183 54.7669C55.4183 54.647 55.3535 54.5499 55.2736 54.5499C55.1937 54.5499 55.1289 54.647 55.1289 54.7669C55.1289 54.8868 55.1937 54.9839 55.2736 54.9839Z" fill="#FF6584"/>
<path d="M56.1418 53.8264C56.2217 53.8264 56.2864 53.7292 56.2864 53.6093C56.2864 53.4894 56.2217 53.3923 56.1418 53.3923C56.0618 53.3923 55.9971 53.4894 55.9971 53.6093C55.9971 53.7292 56.0618 53.8264 56.1418 53.8264Z" fill="#FF6584"/>
<path d="M55.9967 55.418C56.0767 55.418 56.1414 55.3208 56.1414 55.2009C56.1414 55.0811 56.0767 54.9839 55.9967 54.9839C55.9168 54.9839 55.8521 55.0811 55.8521 55.2009C55.8521 55.3208 55.9168 55.418 55.9967 55.418Z" fill="#FF6584"/>
<path d="M54.2609 54.6945C54.3408 54.6945 54.4056 54.5974 54.4056 54.4775C54.4056 54.3576 54.3408 54.2604 54.2609 54.2604C54.181 54.2604 54.1162 54.3576 54.1162 54.4775C54.1162 54.5974 54.181 54.6945 54.2609 54.6945Z" fill="#FF6584"/>
<path d="M59.9035 50.0643C61.1821 50.0643 62.2186 49.0277 62.2186 47.7491C62.2186 46.4705 61.1821 45.434 59.9035 45.434C58.6249 45.434 57.5884 46.4705 57.5884 47.7491C57.5884 49.0277 58.6249 50.0643 59.9035 50.0643Z" fill="#FF6584"/>
<path opacity="0.2" d="M61.6397 47.8939C61.6397 48.3544 61.4567 48.7961 61.1311 49.1217C60.8055 49.4473 60.3638 49.6303 59.9033 49.6303C59.4428 49.6303 59.0012 49.4473 58.6755 49.1217C58.3499 48.7961 58.167 48.3544 58.167 47.8939" fill="black"/>
<path opacity="0.2" d="M58.167 47.6045C58.167 47.144 58.3499 46.7023 58.6755 46.3767C59.0012 46.0511 59.4428 45.8682 59.9033 45.8682C60.3638 45.8682 60.8055 46.0511 61.1311 46.3767C61.4567 46.7023 61.6397 47.144 61.6397 47.6045" fill="black"/>
<path d="M59.0353 47.1704C59.1152 47.1704 59.18 47.0732 59.18 46.9534C59.18 46.8335 59.1152 46.7363 59.0353 46.7363C58.9554 46.7363 58.8906 46.8335 58.8906 46.9534C58.8906 47.0732 58.9554 47.1704 59.0353 47.1704Z" fill="#FF6584"/>
<path d="M59.9035 46.881C59.9834 46.881 60.0482 46.7839 60.0482 46.664C60.0482 46.5441 59.9834 46.447 59.9035 46.447C59.8236 46.447 59.7588 46.5441 59.7588 46.664C59.7588 46.7839 59.8236 46.881 59.9035 46.881Z" fill="#FF6584"/>
<path d="M59.9035 48.7621C59.9834 48.7621 60.0482 48.6649 60.0482 48.545C60.0482 48.4252 59.9834 48.328 59.9035 48.328C59.8236 48.328 59.7588 48.4252 59.7588 48.545C59.7588 48.6649 59.8236 48.7621 59.9035 48.7621Z" fill="#FF6584"/>
<path d="M60.7716 47.6045C60.8516 47.6045 60.9163 47.5073 60.9163 47.3875C60.9163 47.2676 60.8516 47.1704 60.7716 47.1704C60.6917 47.1704 60.627 47.2676 60.627 47.3875C60.627 47.5073 60.6917 47.6045 60.7716 47.6045Z" fill="#FF6584"/>
<path d="M60.6271 49.1961C60.707 49.1961 60.7718 49.0989 60.7718 48.9791C60.7718 48.8592 60.707 48.762 60.6271 48.762C60.5472 48.762 60.4824 48.8592 60.4824 48.9791C60.4824 49.0989 60.5472 49.1961 60.6271 49.1961Z" fill="#FF6584"/>
<path d="M58.8908 48.4727C58.9707 48.4727 59.0355 48.3755 59.0355 48.2556C59.0355 48.1357 58.9707 48.0386 58.8908 48.0386C58.8109 48.0386 58.7461 48.1357 58.7461 48.2556C58.7461 48.3755 58.8109 48.4727 58.8908 48.4727Z" fill="#FF6584"/>
<path d="M64.5339 53.2476C65.8125 53.2476 66.849 52.2111 66.849 50.9325C66.849 49.6539 65.8125 48.6174 64.5339 48.6174C63.2553 48.6174 62.2188 49.6539 62.2188 50.9325C62.2188 52.2111 63.2553 53.2476 64.5339 53.2476Z" fill="#FF610F"/>
<path opacity="0.2" d="M66.27 51.0771C66.27 51.5377 66.0871 51.9793 65.7615 52.3049C65.4358 52.6306 64.9942 52.8135 64.5337 52.8135C64.0732 52.8135 63.6315 52.6306 63.3059 52.3049C62.9803 51.9793 62.7974 51.5377 62.7974 51.0771" fill="black"/>
<path opacity="0.2" d="M62.7974 50.7878C62.7974 50.3273 62.9803 49.8856 63.3059 49.56C63.6315 49.2344 64.0732 49.0515 64.5337 49.0515C64.9942 49.0515 65.4358 49.2344 65.7615 49.56C66.0871 49.8856 66.27 50.3273 66.27 50.7878" fill="black"/>
<path d="M63.6652 50.3537C63.7451 50.3537 63.8099 50.2565 63.8099 50.1367C63.8099 50.0168 63.7451 49.9196 63.6652 49.9196C63.5853 49.9196 63.5205 50.0168 63.5205 50.1367C63.5205 50.2565 63.5853 50.3537 63.6652 50.3537Z" fill="#FF610F"/>
<path d="M64.5339 50.0643C64.6138 50.0643 64.6785 49.9671 64.6785 49.8472C64.6785 49.7274 64.6138 49.6302 64.5339 49.6302C64.4539 49.6302 64.3892 49.7274 64.3892 49.8472C64.3892 49.9671 64.4539 50.0643 64.5339 50.0643Z" fill="#FF610F"/>
<path d="M64.5339 51.9453C64.6138 51.9453 64.6785 51.8481 64.6785 51.7283C64.6785 51.6084 64.6138 51.5112 64.5339 51.5112C64.4539 51.5112 64.3892 51.6084 64.3892 51.7283C64.3892 51.8481 64.4539 51.9453 64.5339 51.9453Z" fill="#FF610F"/>
<path d="M65.4015 50.7878C65.4814 50.7878 65.5462 50.6906 65.5462 50.5707C65.5462 50.4509 65.4814 50.3537 65.4015 50.3537C65.3216 50.3537 65.2568 50.4509 65.2568 50.5707C65.2568 50.6906 65.3216 50.7878 65.4015 50.7878Z" fill="#FF610F"/>
<path d="M65.257 52.3795C65.3369 52.3795 65.4017 52.2823 65.4017 52.1624C65.4017 52.0425 65.3369 51.9454 65.257 51.9454C65.1771 51.9454 65.1123 52.0425 65.1123 52.1624C65.1123 52.2823 65.1771 52.3795 65.257 52.3795Z" fill="#FF610F"/>
<path d="M63.5207 51.6559C63.6006 51.6559 63.6654 51.5588 63.6654 51.4389C63.6654 51.319 63.6006 51.2219 63.5207 51.2219C63.4408 51.2219 63.376 51.319 63.376 51.4389C63.376 51.5588 63.4408 51.6559 63.5207 51.6559Z" fill="#FF610F"/>
<path d="M52.9582 53.537C54.2368 53.537 55.2733 52.5005 55.2733 51.2219C55.2733 49.9432 54.2368 48.9067 52.9582 48.9067C51.6796 48.9067 50.6431 49.9432 50.6431 51.2219C50.6431 52.5005 51.6796 53.537 52.9582 53.537Z" fill="#FF610F"/>
<path opacity="0.2" d="M54.6943 51.3666C54.6943 51.8271 54.5114 52.2687 54.1858 52.5944C53.8601 52.92 53.4185 53.1029 52.958 53.1029C52.4975 53.1029 52.0559 52.92 51.7302 52.5944C51.4046 52.2687 51.2217 51.8271 51.2217 51.3666" fill="black"/>
<path opacity="0.2" d="M51.2217 51.0772C51.2217 50.6166 51.4046 50.175 51.7302 49.8494C52.0559 49.5238 52.4975 49.3408 52.958 49.3408C53.4185 49.3408 53.8601 49.5238 54.1858 49.8494C54.5114 50.175 54.6943 50.6166 54.6943 51.0772" fill="black"/>
<path d="M52.09 50.6431C52.1699 50.6431 52.2347 50.5459 52.2347 50.4261C52.2347 50.3062 52.1699 50.209 52.09 50.209C52.0101 50.209 51.9453 50.3062 51.9453 50.4261C51.9453 50.5459 52.0101 50.6431 52.09 50.6431Z" fill="#FF610F"/>
<path d="M52.9582 50.3537C53.0381 50.3537 53.1029 50.2565 53.1029 50.1367C53.1029 50.0168 53.0381 49.9196 52.9582 49.9196C52.8783 49.9196 52.8135 50.0168 52.8135 50.1367C52.8135 50.2565 52.8783 50.3537 52.9582 50.3537Z" fill="#FF610F"/>
<path d="M52.9582 52.2347C53.0381 52.2347 53.1029 52.1376 53.1029 52.0177C53.1029 51.8978 53.0381 51.8007 52.9582 51.8007C52.8783 51.8007 52.8135 51.8978 52.8135 52.0177C52.8135 52.1376 52.8783 52.2347 52.9582 52.2347Z" fill="#FF610F"/>
<path d="M53.8263 51.0772C53.9062 51.0772 53.971 50.98 53.971 50.8601C53.971 50.7402 53.9062 50.6431 53.8263 50.6431C53.7464 50.6431 53.6816 50.7402 53.6816 50.8601C53.6816 50.98 53.7464 51.0772 53.8263 51.0772Z" fill="#FF610F"/>
<path d="M53.6818 52.6688C53.7617 52.6688 53.8265 52.5717 53.8265 52.4518C53.8265 52.3319 53.7617 52.2347 53.6818 52.2347C53.6019 52.2347 53.5371 52.3319 53.5371 52.4518C53.5371 52.5717 53.6019 52.6688 53.6818 52.6688Z" fill="#FF610F"/>
<path d="M51.9455 51.9453C52.0254 51.9453 52.0902 51.8481 52.0902 51.7283C52.0902 51.6084 52.0254 51.5112 51.9455 51.5112C51.8656 51.5112 51.8008 51.6084 51.8008 51.7283C51.8008 51.8481 51.8656 51.9453 51.9455 51.9453Z" fill="#FF610F"/>
<path d="M58.1672 54.5498C59.4458 54.5498 60.4823 53.5133 60.4823 52.2347C60.4823 50.9561 59.4458 49.9196 58.1672 49.9196C56.8886 49.9196 55.8521 50.9561 55.8521 52.2347C55.8521 53.5133 56.8886 54.5498 58.1672 54.5498Z" fill="#FF610F"/>
<path opacity="0.2" d="M59.9033 52.3794C59.9033 52.6074 59.8584 52.8332 59.7712 53.0439C59.6839 53.2545 59.556 53.4459 59.3948 53.6072C59.2335 53.7684 59.0421 53.8963 58.8315 53.9836C58.6208 54.0708 58.395 54.1157 58.167 54.1157C57.939 54.1157 57.7132 54.0708 57.5025 53.9836C57.2919 53.8963 57.1005 53.7684 56.9392 53.6072C56.778 53.4459 56.6501 53.2545 56.5628 53.0439C56.4756 52.8332 56.4307 52.6074 56.4307 52.3794" fill="black"/>
<path opacity="0.2" d="M56.4307 52.09C56.4307 51.862 56.4756 51.6362 56.5628 51.4256C56.6501 51.2149 56.778 51.0235 56.9392 50.8623C57.1005 50.701 57.2919 50.5731 57.5025 50.4859C57.7132 50.3986 57.939 50.3537 58.167 50.3537C58.395 50.3537 58.6208 50.3986 58.8315 50.4859C59.0421 50.5731 59.2335 50.701 59.3948 50.8623C59.556 51.0235 59.6839 51.2149 59.7712 51.4256C59.8584 51.6362 59.9033 51.862 59.9033 52.09" fill="black"/>
<path d="M57.299 51.6559C57.3789 51.6559 57.4437 51.5588 57.4437 51.4389C57.4437 51.319 57.3789 51.2219 57.299 51.2219C57.2191 51.2219 57.1543 51.319 57.1543 51.4389C57.1543 51.5588 57.2191 51.6559 57.299 51.6559Z" fill="#FF610F"/>
<path d="M58.1672 51.3665C58.2471 51.3665 58.3119 51.2693 58.3119 51.1495C58.3119 51.0296 58.2471 50.9324 58.1672 50.9324C58.0872 50.9324 58.0225 51.0296 58.0225 51.1495C58.0225 51.2693 58.0872 51.3665 58.1672 51.3665Z" fill="#FF610F"/>
<path d="M58.1672 53.2476C58.2471 53.2476 58.3119 53.1505 58.3119 53.0306C58.3119 52.9107 58.2471 52.8135 58.1672 52.8135C58.0872 52.8135 58.0225 52.9107 58.0225 53.0306C58.0225 53.1505 58.0872 53.2476 58.1672 53.2476Z" fill="#FF610F"/>
<path d="M59.0353 52.09C59.1152 52.09 59.18 51.9929 59.18 51.873C59.18 51.7531 59.1152 51.6559 59.0353 51.6559C58.9554 51.6559 58.8906 51.7531 58.8906 51.873C58.8906 51.9929 58.9554 52.09 59.0353 52.09Z" fill="#FF610F"/>
<path d="M58.8908 53.6817C58.9707 53.6817 59.0355 53.5845 59.0355 53.4647C59.0355 53.3448 58.9707 53.2476 58.8908 53.2476C58.8109 53.2476 58.7461 53.3448 58.7461 53.4647C58.7461 53.5845 58.8109 53.6817 58.8908 53.6817Z" fill="#FF610F"/>
<path d="M57.1545 52.9582C57.2344 52.9582 57.2991 52.861 57.2991 52.7412C57.2991 52.6213 57.2344 52.5241 57.1545 52.5241C57.0745 52.5241 57.0098 52.6213 57.0098 52.7412C57.0098 52.861 57.0745 52.9582 57.1545 52.9582Z" fill="#FF610F"/>
<path d="M61.7848 57.0096C63.0634 57.0096 64.0999 55.9731 64.0999 54.6945C64.0999 53.4159 63.0634 52.3794 61.7848 52.3794C60.5062 52.3794 59.4697 53.4159 59.4697 54.6945C59.4697 55.9731 60.5062 57.0096 61.7848 57.0096Z" fill="#FF6584"/>
<path opacity="0.2" d="M63.5205 54.8393C63.5205 55.2998 63.3376 55.7414 63.012 56.0671C62.6863 56.3927 62.2447 56.5756 61.7842 56.5756C61.3237 56.5756 60.882 56.3927 60.5564 56.0671C60.2308 55.7414 60.0479 55.2998 60.0479 54.8393" fill="black"/>
<path opacity="0.2" d="M60.0479 54.5499C60.0479 54.0894 60.2308 53.6477 60.5564 53.3221C60.882 52.9965 61.3237 52.8135 61.7842 52.8135C62.2447 52.8135 62.6863 52.9965 63.012 53.3221C63.3376 53.6477 63.5205 54.0894 63.5205 54.5499" fill="black"/>
<path d="M60.9162 54.1157C60.9961 54.1157 61.0609 54.0185 61.0609 53.8987C61.0609 53.7788 60.9961 53.6816 60.9162 53.6816C60.8363 53.6816 60.7715 53.7788 60.7715 53.8987C60.7715 54.0185 60.8363 54.1157 60.9162 54.1157Z" fill="#FF6584"/>
<path d="M61.7843 53.8264C61.8643 53.8264 61.929 53.7292 61.929 53.6093C61.929 53.4894 61.8643 53.3923 61.7843 53.3923C61.7044 53.3923 61.6396 53.4894 61.6396 53.6093C61.6396 53.7292 61.7044 53.8264 61.7843 53.8264Z" fill="#FF6584"/>
<path d="M61.7843 55.7074C61.8643 55.7074 61.929 55.6102 61.929 55.4904C61.929 55.3705 61.8643 55.2733 61.7843 55.2733C61.7044 55.2733 61.6396 55.3705 61.6396 55.4904C61.6396 55.6102 61.7044 55.7074 61.7843 55.7074Z" fill="#FF6584"/>
<path d="M62.6525 54.5499C62.7324 54.5499 62.7972 54.4527 62.7972 54.3328C62.7972 54.213 62.7324 54.1158 62.6525 54.1158C62.5726 54.1158 62.5078 54.213 62.5078 54.3328C62.5078 54.4527 62.5726 54.5499 62.6525 54.5499Z" fill="#FF6584"/>
<path d="M62.508 56.1414C62.5879 56.1414 62.6527 56.0442 62.6527 55.9244C62.6527 55.8045 62.5879 55.7073 62.508 55.7073C62.4281 55.7073 62.3633 55.8045 62.3633 55.9244C62.3633 56.0442 62.4281 56.1414 62.508 56.1414Z" fill="#FF6584"/>
<path d="M60.7716 55.418C60.8516 55.418 60.9163 55.3208 60.9163 55.2009C60.9163 55.0811 60.8516 54.9839 60.7716 54.9839C60.6917 54.9839 60.627 55.0811 60.627 55.2009C60.627 55.3208 60.6917 55.418 60.7716 55.418Z" fill="#FF6584"/>
<path d="M32.0121 46.4819C32.351 46.4819 32.6257 46.2071 32.6257 45.8682C32.6257 45.5293 32.351 45.2546 32.0121 45.2546C31.6732 45.2546 31.3984 45.5293 31.3984 45.8682C31.3984 46.2071 31.6732 46.4819 32.0121 46.4819Z" fill="#323765"/>
<path d="M48.6927 68.142L33.9551 64.0549L34.5196 61.9579L49.2572 66.0451L48.6927 68.142Z" fill="#F9A825"/>
<path d="M46.5318 67.4411C41.485 68.4073 36.3007 68.4073 31.2539 67.4411V65.2673C36.312 66.1057 41.4737 66.1057 46.5318 65.2673V67.4411Z" fill="#F9A825"/>
<path d="M48.1026 60.9198C43.0558 61.8859 37.8715 61.8859 32.8247 60.9198V58.746C37.8828 59.5843 43.0445 59.5843 48.1026 58.746V60.9198Z" fill="#F9A825"/>
<path d="M53.3853 63.5283C48.3385 64.4944 43.1542 64.4944 38.1074 63.5283V61.3545C43.1656 62.1928 48.3272 62.1928 53.3853 61.3545V63.5283Z" fill="#F9A825"/>
<path d="M54.6705 65.992C49.6237 66.9581 44.4394 66.9581 39.3926 65.992V63.8182C44.4507 64.6565 49.6123 64.6565 54.6705 63.8182V65.992Z" fill="#F9A825"/>
<path d="M59.1511 69.2112L44.0781 71.743L43.7285 69.5983L58.8014 67.0665L59.1511 69.2112Z" fill="#F9A825"/>
<path d="M56.8997 69.4899C52.7207 72.5022 48.0109 74.6989 43.0173 75.9646L42.123 73.9894C47.0729 72.6034 51.7624 70.4162 56.0054 67.5146L56.8997 69.4899Z" fill="#F9A825"/>
<path d="M55.6433 62.8986C51.4644 65.9109 46.7545 68.1076 41.761 69.3733L40.8667 67.3981C45.8165 66.0121 50.506 63.8249 54.749 60.9233L55.6433 62.8986Z" fill="#F9A825"/>
<path d="M61.5168 63.0299C57.3379 66.0422 52.6281 68.2389 47.6345 69.5047L46.7402 67.5294C51.6901 66.1434 56.3795 63.9562 60.6225 61.0547L61.5168 63.0299Z" fill="#F9A825"/>
<path d="M63.6985 64.7239C59.5196 67.7363 54.8097 69.933 49.8162 71.1987L48.9219 69.2235C53.8717 67.8375 58.5612 65.6503 62.8042 62.7487L63.6985 64.7239Z" fill="#F9A825"/>
<path d="M45.4344 60.4823H44.7109V61.2058H45.4344V60.4823Z" fill="#00BF71"/>
<path d="M47.6043 73.0707H46.8809V73.7942H47.6043V73.0707Z" fill="#00BF71"/>
<path d="M36.0291 60.4823H35.3057V61.2058H36.0291V60.4823Z" fill="#00BF71"/>
<path d="M52.8133 69.4534H52.0898V70.1768H52.8133V69.4534Z" fill="#00BF71"/>
<path d="M53.2479 65.2572H52.5244V65.9807H53.2479V65.2572Z" fill="#00BF71"/>
<path d="M41.3128 63.2764L40.4746 62.7077L40.1497 63.1866L40.9878 63.7553L41.3128 63.2764Z" fill="#00BF71"/>
<path d="M49.8499 64.868L49.0117 64.2994L48.6868 64.7783L49.5249 65.347L49.8499 64.868Z" fill="#00BF71"/>
<path d="M39.4319 67.6172L38.5938 67.0486L38.2688 67.5275L39.107 68.0962L39.4319 67.6172Z" fill="#00BF71"/>
<path d="M44.738 67.5751L45.3066 66.7369L44.8277 66.412L44.259 67.2501L44.738 67.5751Z" fill="#00BF71"/>
<path d="M48.6447 68.588L49.2134 67.7498L48.7344 67.4249L48.1658 68.263L48.6447 68.588Z" fill="#00BF71"/>
<path d="M59.0637 65.1151L59.6323 64.277L59.1534 63.952L58.5847 64.7902L59.0637 65.1151Z" fill="#00BF71"/>
</svg>
