<svg width="146" height="100" viewBox="0 0 146 100" fill="none" xmlns="http://www.w3.org/2000/svg">
<path d="M61.011 93.2943C64.3458 93.2943 67.0493 92.5246 67.0493 91.575C67.0493 90.6254 64.3458 89.8556 61.011 89.8556C57.6761 89.8556 54.9727 90.6254 54.9727 91.575C54.9727 92.5246 57.6761 93.2943 61.011 93.2943Z" fill="#E6E6E6"/>
<path d="M126.742 100C130.077 100 132.781 99.2302 132.781 98.2806C132.781 97.331 130.077 96.5612 126.742 96.5612C123.408 96.5612 120.704 97.331 120.704 98.2806C120.704 99.2302 123.408 100 126.742 100Z" fill="#E6E6E6"/>
<path d="M139.337 85.9009C142.672 85.9009 145.375 85.1311 145.375 84.1816C145.375 83.232 142.672 82.4622 139.337 82.4622C136.002 82.4622 133.299 83.232 133.299 84.1816C133.299 85.1311 136.002 85.9009 139.337 85.9009Z" fill="#E6E6E6"/>
<path d="M114.58 80.9147C117.105 80.9147 119.152 80.3318 119.152 79.6129C119.152 78.8939 117.105 78.311 114.58 78.311C112.055 78.311 110.008 78.8939 110.008 79.6129C110.008 80.3318 112.055 80.9147 114.58 80.9147Z" fill="#E6E6E6"/>
<path d="M15.5514 79.6866C17.2188 79.6866 18.5706 79.2687 18.5706 78.7532C18.5706 78.2377 17.2188 77.8198 15.5514 77.8198C13.884 77.8198 12.5322 78.2377 12.5322 78.7532C12.5322 79.2687 13.884 79.6866 15.5514 79.6866Z" fill="#E6E6E6"/>
<path d="M3.64709 90.1749C5.31453 90.1749 6.66625 89.757 6.66625 89.2415C6.66625 88.726 5.31453 88.3081 3.64709 88.3081C1.97965 88.3081 0.62793 88.726 0.62793 89.2415C0.62793 89.757 1.97965 90.1749 3.64709 90.1749Z" fill="#E6E6E6"/>
<path d="M3.64709 73.6686C5.31453 73.6686 6.66625 73.2508 6.66625 72.7353C6.66625 72.2198 5.31453 71.8019 3.64709 71.8019C1.97965 71.8019 0.62793 72.2198 0.62793 72.7353C0.62793 73.2508 1.97965 73.6686 3.64709 73.6686Z" fill="#E6E6E6"/>
<path d="M132.931 75.7488L103.678 74.7171L88.2509 76.1838L61.8945 78.6889L51.9761 79.6311L29.0063 87.2653C28.9141 87.2959 28.815 87.2999 28.7207 87.2767C28.6263 87.2535 28.5404 87.2041 28.4731 87.1343C28.4057 87.0644 28.3596 86.977 28.3401 86.8821C28.3206 86.7872 28.3284 86.6888 28.3628 86.5981L28.3645 86.5964L32.3481 76.0961L31.9288 75.7883L20.9667 67.7604L20.908 67.7175L6.6938 65.5579C6.49368 65.5273 6.30469 65.4464 6.14463 65.3228C5.98458 65.1993 5.85875 65.0371 5.779 64.8517C5.69924 64.6662 5.6682 64.4636 5.6888 64.2628C5.7094 64.0621 5.78097 63.8699 5.89674 63.7044L27.545 32.745L38.9212 16.4795L40.1548 14.7137L87.478 14.062L133.682 74.301C133.786 74.4367 133.849 74.599 133.864 74.7691C133.879 74.9392 133.845 75.1101 133.766 75.2618C133.688 75.4135 133.568 75.5398 133.42 75.6261C133.272 75.7123 133.102 75.7548 132.931 75.7488Z" fill="#FF610F"/>
<path opacity="0.2" d="M51.2405 17.2261L31.9287 75.7883L20.9678 67.7605L27.5458 32.7453L38.8888 16.4407L38.9211 16.4787L51.2405 17.2261Z" fill="black"/>
<path d="M34.0023 39.6603C31.8111 44.9103 31.0353 49.2953 28.4361 48.5035C24.8777 47.4194 28.6139 43.5848 30.8052 38.3349C32.9965 33.085 34.5447 29.0578 36.3714 29.4918C39.7769 30.3008 36.1936 34.4104 34.0023 39.6603Z" fill="#3F3D56"/>
<path d="M38.967 29.1518C38.9664 28.8043 38.8972 28.4604 38.7633 28.1396C38.6294 27.8188 38.4333 27.5275 38.1864 27.2822C37.9395 27.0369 37.6465 26.8425 37.3242 26.71C37.0019 26.5776 36.6566 26.5097 36.308 26.5102C36.2481 26.5103 36.1889 26.5131 36.13 26.5171L33.6248 26.2091C33.3373 26.107 33.0343 26.0551 32.7291 26.0559C32.6448 26.056 32.5616 26.0605 32.4793 26.0683L32.3828 26.0564L32.3802 26.0799C31.7923 26.1585 31.2478 26.4312 30.8334 26.8543C30.4191 27.2774 30.1589 27.8266 30.0944 28.4143C30.0298 29.0019 30.1646 29.5942 30.4773 30.0967C30.7899 30.5991 31.2624 30.9827 31.8193 31.1862L31.8141 31.2338L32.0605 31.2613C32.2816 31.3189 32.5092 31.3478 32.7376 31.3474C32.763 31.3474 32.788 31.3461 32.8132 31.3454L35.3742 31.6312C35.6753 31.7447 35.9946 31.8025 36.3165 31.8018C36.4365 31.8014 36.5564 31.7929 36.6753 31.7765L36.8936 31.8009L36.895 31.7371C37.4837 31.605 38.0098 31.2769 38.3864 30.807C38.7631 30.337 38.9679 29.7532 38.967 29.1518Z" fill="#FF610F"/>
<path opacity="0.2" d="M38.967 29.1518C38.9664 28.8043 38.8972 28.4604 38.7633 28.1396C38.6294 27.8188 38.4333 27.5275 38.1864 27.2822C37.9395 27.0369 37.6465 26.8425 37.3242 26.71C37.0019 26.5776 36.6566 26.5097 36.308 26.5102C36.2481 26.5103 36.1889 26.5131 36.13 26.5171L33.6248 26.2091C33.3373 26.107 33.0343 26.0551 32.7291 26.0559C32.6448 26.056 32.5616 26.0605 32.4793 26.0683L32.3828 26.0564L32.3802 26.0799C31.7923 26.1585 31.2478 26.4312 30.8334 26.8543C30.4191 27.2774 30.1589 27.8266 30.0944 28.4143C30.0298 29.0019 30.1646 29.5942 30.4773 30.0967C30.7899 30.5991 31.2624 30.9827 31.8193 31.1862L31.8141 31.2338L32.0605 31.2613C32.2816 31.3189 32.5092 31.3478 32.7376 31.3474C32.763 31.3474 32.788 31.3461 32.8132 31.3454L35.3742 31.6312C35.6753 31.7447 35.9946 31.8025 36.3165 31.8018C36.4365 31.8014 36.5564 31.7929 36.6753 31.7765L36.8936 31.8009L36.895 31.7371C37.4837 31.605 38.0098 31.2769 38.3864 30.807C38.7631 30.337 38.9679 29.7532 38.967 29.1518Z" fill="white"/>
<path d="M3.51269 65.2945L3.20605 65.1341C11.0601 50.2151 33.2743 18.3388 33.4977 18.0186L33.7821 18.2156C33.5587 18.5357 11.3568 50.3944 3.51269 65.2945Z" fill="#3F3D56"/>
<path d="M27.5704 87.6526L27.2363 87.5619C27.3981 86.9691 43.4856 28.1585 49.0712 18.2378L49.3731 18.4066C43.8083 28.2906 27.7322 87.0601 27.5704 87.6526Z" fill="#3F3D56"/>
<path d="M135.043 76.2508C126.467 62.1702 94.0782 18.5621 93.752 18.1232L94.0303 17.9178C94.3565 18.3568 126.755 61.9777 135.339 76.0717L135.043 76.2508Z" fill="#3F3D56"/>
<path d="M26.9474 89.2179C27.6168 89.2169 28.1583 88.5207 28.1569 87.6631C28.1555 86.8054 27.6118 86.111 26.9424 86.1121C26.2731 86.1131 25.7316 86.8093 25.733 87.6669C25.7344 88.5246 26.2781 89.219 26.9474 89.2179Z" fill="#3F3D56"/>
<path d="M3.59099 65.9616C4.26033 65.9605 4.80182 65.2644 4.80043 64.4067C4.79905 63.5491 4.25532 62.8546 3.58598 62.8557C2.91663 62.8568 2.37515 63.5529 2.37653 64.4106C2.37791 65.2683 2.92165 65.9627 3.59099 65.9616Z" fill="#3F3D56"/>
<path d="M135.364 77.0257C136.034 77.0246 136.575 76.3285 136.574 75.4708C136.572 74.6131 136.029 73.9187 135.359 73.9198C134.69 73.9209 134.149 74.617 134.15 75.4747C134.151 76.3324 134.695 77.0268 135.364 77.0257Z" fill="#3F3D56"/>
<path d="M32.1514 19.7314L97.4725 20.429C97.4271 15.1121 95.2753 10.0286 91.4859 6.28581C87.6964 2.54304 82.5764 0.444375 77.2413 0.447024L52.3123 0.486994C41.8852 0.503712 33.0561 8.63036 32.2121 18.9881L32.1514 19.7314Z" fill="#3F3D56"/>
<path opacity="0.2" d="M89.5448 41.2507H65.671C65.3803 41.2505 65.0925 41.3077 64.8242 41.4193C64.556 41.5308 64.3126 41.6943 64.1083 41.9004C63.9039 42.1064 63.7427 42.3508 63.634 42.6195C63.5252 42.8881 63.4711 43.1756 63.4748 43.4653L63.4955 45.2053L63.7077 63.8333L63.7111 64.1926L63.718 64.7858L63.7249 65.3653L63.7646 68.8574C63.7712 69.4256 63.999 69.9691 64.4001 70.373C64.8012 70.7769 65.3442 71.0097 65.9143 71.0221C65.9729 71.0221 66.0333 71.0204 66.0937 71.0169L71.7628 70.673L79.9646 70.1744L82.8595 69.999L83.5048 69.9595L88.0163 69.6861H88.018L89.6777 69.5847C90.2359 69.5501 90.76 69.305 91.1433 68.899C91.5266 68.493 91.7404 67.9568 91.741 67.3993V43.4395C91.7404 42.8592 91.5088 42.3028 91.0971 41.8925C90.6854 41.4822 90.1271 41.2514 89.5448 41.2507Z" fill="black"/>
<path d="M94.4613 38.2083C94.375 38.2151 94.2912 38.2409 94.2161 38.2839C94.1409 38.3268 94.0763 38.3858 94.0267 38.4566L91.3962 38.4608V37.7655C91.3956 37.1852 91.164 36.6288 90.7523 36.2185C90.3405 35.8081 89.7823 35.5773 89.2 35.5767H65.3262C65.0355 35.5765 64.7477 35.6337 64.4794 35.7453C64.2111 35.8568 63.9677 36.0203 63.7634 36.2263C63.5591 36.4324 63.3979 36.6768 63.2891 36.9455C63.1804 37.2141 63.1263 37.5016 63.1299 37.7913L63.1384 38.5061L61.4419 38.5088C61.349 38.4101 61.2213 38.3511 61.0857 38.3443C60.491 38.3453 60.0111 39.6394 60.0137 41.2348C60.0163 42.8303 60.5004 44.1229 61.095 44.122C61.1986 44.1107 61.2979 44.0747 61.3847 44.0171C61.4714 43.9595 61.543 43.8819 61.5933 43.791L94.0353 43.739C94.085 43.8096 94.1499 43.8684 94.2252 43.9111C94.3005 43.9538 94.3843 43.9793 94.4706 43.9859C95.0653 43.9849 95.5452 42.6908 95.5426 41.0953C95.54 39.4999 95.0559 38.2073 94.4613 38.2083Z" fill="#FF610F"/>
<path opacity="0.2" d="M94.4613 38.2083C94.375 38.2151 94.2912 38.2409 94.2161 38.2839C94.141 38.3268 94.0763 38.3858 94.0267 38.4566L91.3962 38.4608V37.7655C91.3956 37.1852 91.164 36.6288 90.7523 36.2185C90.3405 35.8081 89.7823 35.5773 89.2 35.5767H65.3262C65.0355 35.5765 64.7477 35.6337 64.4794 35.7453C64.2111 35.8568 63.9678 36.0203 63.7634 36.2263C63.5591 36.4324 63.3979 36.6768 63.2891 36.9455C63.1804 37.2141 63.1263 37.5016 63.1299 37.7913L63.1384 38.5061L61.4419 38.5088C61.349 38.4101 61.2213 38.3512 61.0857 38.3443C60.491 38.3453 60.0111 39.6394 60.0137 41.2348C60.0163 42.8303 60.5004 44.1229 61.095 44.122C61.1986 44.1107 61.298 44.0747 61.3847 44.0171C61.4714 43.9595 61.543 43.8819 61.5933 43.791L94.0353 43.739C94.085 43.8096 94.1499 43.8684 94.2252 43.9111C94.3005 43.9538 94.3843 43.9793 94.4706 43.9859C95.0653 43.9849 95.5452 42.6908 95.5426 41.0953C95.5401 39.4999 95.0559 38.2073 94.4613 38.2083Z" fill="white"/>
<path d="M91.7891 74.7349C91.6311 74.8822 91.441 74.9911 91.2337 75.0531C91.0264 75.1151 90.8075 75.1284 90.5942 75.0921C90.3808 75.0557 90.1788 74.9707 90.0039 74.8436C89.829 74.7166 89.686 74.5509 89.586 74.3596L88.2881 71.876L88.8045 70.761L91.5869 72.5357C91.767 72.6506 91.9183 72.8049 92.0294 72.9869C92.1405 73.1689 92.2084 73.3738 92.2279 73.586C92.2474 73.7982 92.218 74.0119 92.142 74.211C92.0659 74.4102 91.9453 74.5893 91.7891 74.7349Z" fill="#FFB8B8"/>
<path d="M97.3954 89.2253C97.3646 88.9384 97.2274 88.6732 97.0107 88.4818C96.794 88.2904 96.5134 88.1865 96.2238 88.1905C95.9601 88.1888 95.7034 88.2753 95.4949 88.4364C95.2865 88.5975 95.1384 88.8237 95.0744 89.0787L93.9249 94.6416C93.887 94.8042 93.8673 94.9706 93.8662 95.1376C93.8662 96.392 94.9197 97.2638 96.2238 97.2638C97.528 97.2638 98.5821 96.392 98.5821 95.1376C98.5814 94.9366 98.554 94.7366 98.5006 94.5428L97.3954 89.2253Z" fill="#3F3D56"/>
<path d="M106.09 91.7135C105.973 91.6114 105.847 91.5197 105.714 91.4397L101.323 88.3813C100.895 88.1138 100.439 88.1213 100.107 88.4442C99.9625 88.5815 99.8706 88.765 99.8475 88.9627C99.8244 89.1605 99.8716 89.3601 99.9809 89.5268L103.297 93.8699C103.372 93.9752 103.457 94.074 103.549 94.1651C104.124 94.8053 105.398 94.8405 106.099 94.1651C106.79 93.4784 106.782 92.2548 106.09 91.7135Z" fill="#3F3D56"/>
<path d="M109.39 87.1829H104.943C104.8 87.1775 104.661 87.2284 104.556 87.3246C104.451 87.4208 104.389 87.5545 104.382 87.6965C104.38 87.8275 104.421 87.9554 104.501 88.0599C104.58 88.1644 104.692 88.2395 104.819 88.2731L109.015 89.5665C109.624 89.7082 110.445 89.1669 110.445 88.4908C110.445 87.631 109.965 87.1829 109.39 87.1829Z" fill="#3F3D56"/>
<path d="M88.2274 87.694C88.2227 87.6209 88.2035 87.5496 88.1709 87.484C88.1382 87.4185 88.0928 87.3601 88.0372 87.3123C87.9816 87.2644 87.917 87.2281 87.8472 87.2055C87.7774 87.1828 87.7037 87.1743 87.6306 87.1804H83.183C82.6228 87.1804 82.1504 87.7834 82.1504 88.4594C82.1504 89.1354 82.9474 89.7082 83.5588 89.5665L87.8175 88.2731C87.9452 88.2435 88.0575 88.1681 88.1331 88.0613C88.2087 87.9546 88.2423 87.8238 88.2274 87.694Z" fill="#3F3D56"/>
<path d="M91.2799 88.3863L86.8874 91.4315C86.7509 91.508 86.6238 91.5999 86.5084 91.7053C86.1855 92.0046 85.9951 92.4196 85.9791 92.8588C85.9632 93.2981 86.1229 93.7257 86.4233 94.0475C86.4506 94.0768 86.479 94.1051 86.5084 94.1324C86.853 94.4567 87.309 94.6374 87.7829 94.6374C88.2569 94.6374 88.7129 94.4567 89.0574 94.1324C89.1513 94.0429 89.236 93.9442 89.3101 93.8378L92.6283 89.5193C92.7395 89.3548 92.7878 89.156 92.7647 88.9591C92.7415 88.7621 92.6483 88.5799 92.502 88.4455C92.3382 88.2932 92.1256 88.2037 91.9019 88.1929C91.6781 88.1821 91.4578 88.2506 91.2799 88.3863Z" fill="#3F3D56"/>
<path d="M98.1125 82.4351C98.1635 82.3604 98.1917 82.2727 98.194 82.1824C98.194 81.6492 97.1399 81.2787 95.8357 81.2787C94.5315 81.2787 93.478 81.6492 93.478 82.1824C93.4799 82.2564 93.5001 82.3288 93.5368 82.3932L94.6862 84.7573C94.8179 84.9804 95.2928 85.1363 95.8357 85.1348C96.4477 85.1348 96.9561 84.9419 97.0072 84.695L98.1125 82.4351Z" fill="#3F3D56"/>
<path d="M105.711 82.5956C105.011 82.3086 103.736 82.3236 103.162 82.5956C103.075 82.6317 102.99 82.6736 102.909 82.7211L99.5932 84.5668C99.3678 84.713 99.4209 84.9065 99.7195 85.0269C100.112 85.1625 100.537 85.1718 100.935 85.0537L105.327 83.7539C105.454 83.7217 105.579 83.6829 105.702 83.6375C106.394 83.4075 106.402 82.8875 105.711 82.5956Z" fill="#3F3D56"/>
<path d="M110.057 85.0071C110.057 84.7198 109.236 84.4898 108.627 84.55L104.431 85.0997C104.18 85.1347 103.994 85.2161 103.994 85.3447C103.994 85.4734 104.268 85.563 104.555 85.563H109.003C109.577 85.563 110.057 85.3726 110.057 85.0071Z" fill="#3F3D56"/>
<path d="M87.4298 85.0997L83.1711 84.55C82.5597 84.4898 81.7627 84.7332 81.7627 85.0205C81.7627 85.3078 82.2351 85.5641 82.7953 85.5641H87.2428C87.5523 85.5641 87.8397 85.4795 87.8397 85.3458C87.8397 85.212 87.707 85.1347 87.4298 85.0997Z" fill="#3F3D56"/>
<path d="M92.1138 85.0264C92.4246 84.9041 92.4612 84.7193 92.2401 84.57L88.9219 82.7347C88.8412 82.6862 88.7567 82.6444 88.6693 82.6095C87.8439 82.3234 86.9457 82.3234 86.1203 82.6095C86.0909 82.6211 86.0625 82.6331 86.0351 82.6456C85.4096 82.9304 85.4478 83.3761 86.1203 83.641C86.2438 83.6883 86.3704 83.7272 86.4992 83.7574L90.8918 85.0515C91.2918 85.17 91.719 85.1612 92.1138 85.0264Z" fill="#3F3D56"/>
<path d="M104.882 82.0524C104.882 88.8892 101.058 89.0156 96.342 89.0156C91.6257 89.0156 83.8826 87.6631 87.8025 82.0524C91.9368 76.1347 99.0294 64.8549 96.342 64.2574C96.342 64.2574 104.882 75.2156 104.882 82.0524Z" fill="#F9A825"/>
<path opacity="0.5" d="M99.3493 86.2594C99.3493 88.9656 97.836 89.0157 95.9691 89.0157C94.1023 89.0157 91.0373 88.4803 92.5889 86.2594C94.2254 83.917 97.0329 79.452 95.9691 79.2156C95.9691 79.2156 99.3493 83.5532 99.3493 86.2594Z" fill="#FF6584"/>
<path d="M91.7414 66.1768V67.3993C91.7407 67.9568 91.527 68.493 91.1436 68.899C90.7603 69.305 90.2362 69.5502 89.678 69.5847L66.094 71.0169C65.797 71.0351 65.4995 70.9929 65.2194 70.8928C64.9393 70.7928 64.6825 70.6371 64.4646 70.4351C64.2468 70.2331 64.0725 69.9891 63.9522 69.7179C63.8319 69.4467 63.7682 69.1539 63.7649 68.8574L63.708 63.8333L77.974 63.6029L91.7414 66.1768Z" fill="#3F3D56"/>
<path d="M87.8956 72.2321L77.2559 66.7248C77.2068 66.6994 77.1637 66.6639 77.1295 66.6206C77.0953 66.5773 77.0707 66.5273 77.0573 66.4738L74.7493 57.2032C74.6154 56.6653 74.6877 56.0969 74.9521 55.6094C75.2165 55.1218 75.6539 54.7501 76.1788 54.567L76.7348 54.373C76.8588 54.3298 76.9903 54.3124 77.1213 54.3218C77.2523 54.3313 77.3799 54.3675 77.4963 54.4281C77.6127 54.4887 77.7154 54.5725 77.798 54.6743C77.8806 54.776 77.9413 54.8936 77.9764 55.0197L80.2513 63.1816C80.2726 63.258 80.3169 63.326 80.3781 63.3766L89.047 70.5351C89.1218 70.5968 89.1708 70.6842 89.1843 70.78C89.1978 70.8759 89.1748 70.9733 89.12 71.0532L88.3966 72.1068C88.3429 72.1851 88.2623 72.2411 88.17 72.2642C88.0777 72.2872 87.9801 72.2759 87.8956 72.2321Z" fill="#E6E6E6"/>
<path d="M80.8861 57.8095C75.7257 55.1019 70.324 53.7422 64.5342 54.5502C66.2794 51.6023 67.5757 48.8769 67.489 46.8367C67.4518 46.181 67.5764 45.5263 67.852 44.9298C68.1276 44.3334 68.5458 43.8133 69.0699 43.4153C69.9133 42.7922 70.9355 42.456 71.9854 42.4564C72.9229 42.0398 73.985 41.9977 74.9528 42.3389C75.3635 42.493 75.737 42.7317 76.0489 43.0395C76.3607 43.3473 76.6039 43.7172 76.7626 44.125C76.9605 44.6029 77.3867 45.0216 78.0048 45.3904C78.5774 45.7206 79.0439 46.2063 79.3498 46.7908C79.7569 47.5985 79.785 48.4114 79.2514 49.2324C81.2495 51.3244 81.2551 54.4681 80.8861 57.8095Z" fill="#2F2E41"/>
<path d="M73.5712 51.0337C75.5675 51.0337 77.1858 49.4208 77.1858 47.4313C77.1858 45.4417 75.5675 43.8289 73.5712 43.8289C71.5749 43.8289 69.9565 45.4417 69.9565 47.4313C69.9565 49.4208 71.5749 51.0337 73.5712 51.0337Z" fill="#FFB8B8"/>
<path d="M75.2923 55.2364L71.0752 55.6653C71.3015 53.208 71.3905 50.9405 71.0752 49.2324H75.2923C74.4914 51.9519 74.5616 53.8902 75.2923 55.2364Z" fill="#FFB8B8"/>
<path d="M77.5513 55.1434C77.5478 55.52 77.5398 55.8925 77.5271 56.261C77.4391 58.8986 77.1061 61.2731 76.1987 63.0217C76.0144 63.3837 75.7942 63.7265 75.5414 64.0447C75.5396 64.048 75.5373 64.0509 75.5345 64.0533C75.517 64.0775 75.498 64.1005 75.4775 64.1221C75.2919 64.3518 75.0858 64.5641 74.8616 64.7566L73.1347 66.5619L73.0553 66.6445L72.5515 66.9798L69.9568 68.7026L63.7252 65.3652L63.7183 64.7858L63.7114 64.1926C65.0968 62.2359 65.9611 59.6912 66.5098 56.7941C66.6599 56.0014 66.7875 55.1813 66.8962 54.3388C66.9704 53.7559 67.036 53.161 67.0929 52.5575C67.1017 52.3722 67.1647 52.1935 67.274 52.0434C67.274 52.0431 67.2741 52.0429 67.2742 52.0427C67.2742 52.0425 67.2744 52.0423 67.2745 52.0421C67.2747 52.042 67.2749 52.0418 67.2751 52.0418C67.2753 52.0417 67.2755 52.0416 67.2758 52.0416C67.5415 51.7046 68.0694 51.7115 68.7077 51.6771C69.6031 51.629 70.4847 51.1665 71.2766 51.6032C71.2963 51.6122 71.3153 51.6225 71.3335 51.6341L73.6574 54.2064L74.7253 53.0595L74.7754 53.0062L76.975 53.945C77.2 54.0419 77.3822 54.2165 77.4881 54.4368C77.594 54.657 77.6165 54.908 77.5513 55.1434Z" fill="#E6E6E6"/>
<path d="M72.6468 67.7862C72.6469 68.2248 72.5638 68.6594 72.4018 69.0672L71.7635 70.6731L66.0944 71.017C66.034 71.0204 65.9736 71.0221 65.915 71.0221C65.3449 71.0097 64.8019 70.777 64.4008 70.3731C63.9997 69.9692 63.7718 69.4257 63.7653 68.8574L63.7256 65.3653L63.7188 64.7859L65.7821 65.6576L67.7937 64.5813C67.9034 64.5345 68.0157 64.4944 68.1302 64.4609C68.2792 64.4139 68.4314 64.3777 68.5856 64.3526H68.5874C68.6615 64.3405 68.7357 64.3302 68.8099 64.3234C69.6626 64.2382 70.5169 64.4689 71.2097 64.9716C71.6146 65.2638 71.9508 65.6405 72.1948 66.0754C72.2135 66.1053 72.2302 66.1363 72.2448 66.1683C72.382 66.4244 72.4852 66.6972 72.5519 66.9798C72.6147 67.2441 72.6465 67.5147 72.6468 67.7862Z" fill="#2F2E41"/>
<path opacity="0.2" d="M71.0322 57.5093L71.7863 60.9575L76.368 64.8857L72.3232 60.7687L71.0322 57.5093Z" fill="black"/>
<path opacity="0.2" d="M66.8154 59.1389L68.1923 64.714L72.2374 66.1723L68.4506 64.2852L66.8154 59.1389Z" fill="black"/>
<path d="M77.9174 47.6457C75.2534 46.4242 72.2415 46.0759 69.5693 47.3883L69.9136 44.3006L75.7658 43.3571L77.9174 47.6457Z" fill="#2F2E41"/>
<path d="M99.3322 74.7788L79.7427 71.425L79.9828 70.2455L99.3322 74.7788Z" fill="#3F3D56"/>
<path d="M83.0108 72.1618C82.8528 72.3091 82.6627 72.418 82.4554 72.48C82.248 72.542 82.0292 72.5553 81.8158 72.519C81.6025 72.4826 81.4005 72.3976 81.2256 72.2705C81.0507 72.1435 80.9077 71.9778 80.8077 71.7865L79.5098 69.3029L80.0261 68.1879L82.8086 69.9626C82.9887 70.0775 83.14 70.2318 83.2511 70.4138C83.3622 70.5958 83.4301 70.8007 83.4496 71.0129C83.4691 71.225 83.4397 71.4388 83.3637 71.6379C83.2876 71.8371 83.1669 72.0162 83.0108 72.1618Z" fill="#FFB8B8"/>
<path d="M79.1173 69.6591L68.4775 64.1517C68.4285 64.1263 68.3854 64.0908 68.3511 64.0475C68.3169 64.0042 68.2923 63.9542 68.279 63.9007L65.971 54.6301C65.8371 54.0922 65.9094 53.5238 66.1738 53.0362C66.4382 52.5487 66.8756 52.1769 67.4005 51.9939L67.9565 51.7999C68.0805 51.7567 68.212 51.7393 68.343 51.7487C68.474 51.7582 68.6016 51.7944 68.718 51.855C68.8344 51.9156 68.9371 51.9994 69.0196 52.1012C69.1022 52.2029 69.163 52.3205 69.1981 52.4466L71.473 60.6085C71.4943 60.6848 71.5385 60.7529 71.5998 60.8035L80.2687 67.962C80.3435 68.0237 80.3924 68.1111 80.4059 68.207C80.4194 68.3028 80.3965 68.4002 80.3417 68.4801L79.6183 69.5338C79.5646 69.612 79.4839 69.668 79.3916 69.6911C79.2993 69.7142 79.2017 69.7028 79.1173 69.6591Z" fill="#E6E6E6"/>
<path d="M97.2211 75.3896C97.3151 75.4079 97.4126 75.3884 97.4924 75.3354C97.5721 75.2824 97.6275 75.2002 97.6467 75.1066L97.843 74.1275C97.8618 74.0338 97.8424 73.9364 97.7892 73.8569C97.736 73.7773 97.6533 73.7221 97.5592 73.7034L94.7158 73.1369C94.6217 73.1183 94.5241 73.1377 94.4444 73.1907C94.3646 73.2438 94.3092 73.3261 94.2902 73.4198L94.0939 74.3989C94.0846 74.4453 94.0846 74.4931 94.0938 74.5395C94.103 74.5859 94.1213 74.6301 94.1477 74.6695C94.174 74.7089 94.2079 74.7427 94.2473 74.7691C94.2868 74.7954 94.3311 74.8137 94.3777 74.823L97.2211 75.3896Z" fill="#E6E6E6"/>
</svg>
