<svg width="186" height="116" viewBox="0 0 186 116" fill="none" xmlns="http://www.w3.org/2000/svg">
<g clip-path="url(#clip0)">
<path d="M2.65355 46.86C9.47854 20.1088 33.061 0.798106 60.7418 0.023573C75.3758 -0.385899 90.7748 4.45195 101.986 21.3814C122.028 51.6445 100.755 72.5573 85.9234 82.4946C78.758 87.3052 72.3016 93.0896 66.7412 99.6802C56.7231 111.53 37.4505 126.255 14.4977 103.183C-2.13858 86.4604 -1.89257 64.679 2.65355 46.86Z" fill="#EB5508"/>
<path d="M160.384 67.1413C160.567 66.8699 160.748 66.5912 160.921 66.313L160.642 66.141C160.472 66.4157 160.293 66.6906 160.112 66.9585L160.384 67.1413Z" fill="white"/>
<path d="M161.91 64.5613C162.214 63.9663 162.497 63.3517 162.75 62.7344L162.446 62.6106C162.196 63.2195 161.918 63.8259 161.617 64.4129L161.91 64.5613ZM163.435 60.8445C163.636 60.2081 163.813 59.5554 163.961 58.9044L163.641 58.8323C163.495 59.4745 163.321 60.1184 163.122 60.7461L163.435 60.8445ZM164.323 56.9277C164.416 56.2681 164.483 55.5955 164.522 54.9283L164.194 54.9095C164.156 55.5678 164.09 56.2315 163.999 56.8822L164.323 56.9277ZM164.228 52.9269L164.556 52.9192C164.54 52.2511 164.496 51.5767 164.426 50.9146L164.1 50.949C164.169 51.6022 164.212 52.2677 164.228 52.9269ZM163.81 48.9882L164.132 48.9272C164.008 48.2718 163.854 47.6135 163.675 46.9707L163.359 47.058C163.535 47.6922 163.687 48.3416 163.81 48.9882ZM162.748 45.1717L163.056 45.0585C162.824 44.4324 162.563 43.8081 162.279 43.2029L161.982 43.3411C162.262 43.9381 162.52 44.554 162.748 45.1717ZM117.84 44.1614C118.096 43.5554 118.381 42.9522 118.688 42.3684L118.397 42.217C118.087 42.8087 117.797 43.4202 117.538 44.0343L117.84 44.1614ZM161.067 41.5801L161.352 41.4179C161.02 40.8389 160.659 40.2662 160.28 39.7155L160.01 39.9005C160.384 40.4438 160.74 41.0089 161.067 41.5801ZM119.681 40.6512C120.034 40.0952 120.415 39.5468 120.813 39.0214L120.551 38.8244C120.148 39.3571 119.762 39.9129 119.404 40.4764L119.681 40.6512ZM158.817 38.3134L159.071 38.1069C158.648 37.5895 158.199 37.0834 157.735 36.6025L157.498 36.8289C157.956 37.3035 158.4 37.8029 158.817 38.3134ZM122.075 37.4894C122.515 36.998 122.981 36.5188 123.459 36.0653L123.233 35.8284C122.748 36.2881 122.276 36.7737 121.831 37.2717L122.075 37.4894ZM156.063 35.4572L156.279 35.2122C155.778 34.7708 155.251 34.3445 154.715 33.9455L154.519 34.2074C155.048 34.6012 155.567 35.0216 156.063 35.4572ZM124.955 34.7589C125.47 34.3457 126.008 33.9486 126.554 33.579L126.37 33.3085C125.816 33.6832 125.271 34.0855 124.75 34.5043L124.955 34.7589ZM152.878 33.0882L153.052 32.8111C152.484 32.4571 151.895 32.1227 151.301 31.817L151.151 32.1075C151.737 32.409 152.318 32.739 152.878 33.0882ZM128.245 32.534C128.821 32.21 129.417 31.9063 130.016 31.6316L129.879 31.3346C129.271 31.6131 128.667 31.9209 128.083 32.2493L128.245 32.534ZM149.348 31.2724L149.474 30.9706C148.856 30.7148 148.22 30.4817 147.584 30.2779L147.483 30.5891C148.111 30.7901 148.739 31.02 149.348 31.2724ZM131.856 30.8781C132.477 30.6536 133.115 30.4521 133.752 30.2795L133.666 29.9642C133.02 30.1391 132.373 30.3432 131.744 30.5709L131.856 30.8781ZM145.567 30.0618L145.641 29.7434C144.989 29.5929 144.323 29.4677 143.66 29.3712L143.613 29.6946C144.267 29.7899 144.924 29.9134 145.567 30.0618V30.0618ZM135.692 29.8398C136.34 29.7208 137.003 29.6271 137.661 29.5615L137.628 29.2362C136.961 29.3028 136.289 29.3977 135.633 29.5184L135.692 29.8398ZM141.635 29.4891L141.656 29.1629C140.989 29.1209 140.309 29.106 139.64 29.1181L139.646 29.4449C140.306 29.4329 140.977 29.4478 141.635 29.4891Z" fill="white"/>
<path d="M116.852 46.9737C116.94 46.6626 117.035 46.3491 117.136 46.0418L116.824 45.9404C116.722 46.252 116.625 46.5698 116.536 46.8851L116.852 46.9737Z" fill="white"/>
<path d="M118.852 28.6694H119.18C119.18 28.3423 119.174 28.0104 119.162 27.6831L118.835 27.6944C118.846 28.0181 118.852 28.3461 118.852 28.6694Z" fill="white"/>
<path d="M118.695 25.729L119.021 25.6944C118.951 25.0361 118.856 24.3725 118.739 23.722L118.416 23.7797C118.532 24.4226 118.626 25.0785 118.695 25.729ZM117.997 21.8555L118.315 21.7748C118.151 21.1333 117.961 20.4901 117.751 19.863L117.44 19.9664C117.648 20.5862 117.835 21.2217 117.997 21.8555ZM65.7012 18.4071C65.9463 17.8005 66.2167 17.1953 66.505 16.6084L66.2103 16.4648C65.9188 17.0587 65.6451 17.6711 65.397 18.285L65.7012 18.4071ZM116.747 18.1206L117.05 17.995C116.795 17.3842 116.514 16.7744 116.215 16.1826L115.922 16.3296C116.218 16.9145 116.495 17.517 116.747 18.1206ZM67.4365 14.8719C67.7662 14.307 68.1207 13.7466 68.4904 13.2062L68.2195 13.022C67.8453 13.5689 67.4866 14.1359 67.1531 14.7075L67.4365 14.8719ZM114.97 14.6027L115.252 14.4351C114.912 13.8676 114.547 13.3043 114.166 12.7611L113.897 12.9484C114.273 13.4852 114.635 14.0418 114.97 14.6027H114.97ZM69.6611 11.6198C70.0689 11.1067 70.5 10.6023 70.9423 10.1205L70.7006 9.89976C70.2529 10.3873 69.8166 10.8977 69.404 11.4168L69.6611 11.6198ZM112.708 11.3749L112.963 11.1691C112.544 10.6548 112.102 10.1494 111.649 9.66674L111.41 9.89018C111.858 10.3672 112.295 10.8668 112.708 11.3749ZM72.3275 8.71593C72.8041 8.26602 73.3027 7.82776 73.8097 7.4132L73.6018 7.16055C73.0888 7.5799 72.5843 8.02343 72.102 8.4786L72.3275 8.71593ZM110.009 8.50159L110.231 8.26171C109.744 7.81236 109.235 7.37465 108.717 6.96089L108.512 7.21593C109.024 7.6249 109.527 8.05742 110.009 8.50159V8.50159ZM75.3812 6.21907C75.9169 5.8413 76.473 5.47821 77.0342 5.13986L76.8645 4.86024C76.2967 5.20258 75.7339 5.56998 75.1919 5.95222L75.3812 6.21907ZM106.928 6.04L107.114 5.77108C106.568 5.39538 106.002 5.03461 105.43 4.69865L105.264 4.98018C105.829 5.31223 106.388 5.66878 106.928 6.04V6.04ZM78.7605 4.18154C79.3451 3.88389 79.9476 3.60395 80.5516 3.34931L80.4238 3.04831C79.8127 3.3059 79.2029 3.58927 78.6113 3.89043L78.7605 4.18154ZM103.528 4.04214L103.674 3.74944C103.08 3.45545 102.467 3.17927 101.854 2.92861L101.729 3.23106C102.336 3.47874 102.941 3.75166 103.528 4.04213V4.04214ZM82.3982 2.64795C83.0185 2.43744 83.6552 2.24672 84.2907 2.08114L84.2078 1.76497C83.5646 1.93247 82.9202 2.12551 82.2925 2.33849L82.3982 2.64795ZM99.8775 2.55124L99.9796 2.24066C99.3494 2.03477 98.7032 1.84908 98.0588 1.68875L97.9794 2.00588C98.6162 2.16428 99.2548 2.34774 99.8775 2.55123L99.8775 2.55124ZM86.219 1.65221C86.8638 1.53291 87.5212 1.43547 88.173 1.36254L88.1365 1.03775C87.4768 1.11157 86.8116 1.21012 86.1591 1.33078L86.219 1.65221ZM96.0468 1.59842L96.103 1.27635C95.4498 1.16296 94.7836 1.07174 94.1228 1.00511L94.0899 1.33038C94.7428 1.39613 95.4013 1.4863 96.0468 1.59842L96.0468 1.59842ZM90.1429 1.21267C90.7995 1.1861 91.467 1.18259 92.1187 1.20198L92.1286 0.875282C91.4691 0.855653 90.7939 0.859083 90.1294 0.886135L90.1429 1.21267Z" fill="white"/>
<path d="M64.742 21.2117C64.8297 20.9006 64.9245 20.5866 65.0234 20.2782L64.7112 20.1786C64.611 20.4906 64.5151 20.8084 64.4262 21.1231L64.742 21.2117Z" fill="white"/>
<path d="M160.575 71.1981C157.559 71.1981 155.114 71.0153 155.114 70.7898C155.114 70.5643 157.559 70.3815 160.575 70.3815C163.592 70.3815 166.037 70.5643 166.037 70.7898C166.037 71.0153 163.592 71.1981 160.575 71.1981Z" fill="#0B24FB"/>
<path d="M117.017 51.4626C114.001 51.4626 111.555 51.2798 111.555 51.0543C111.555 50.8288 114.001 50.646 117.017 50.646C120.034 50.646 122.479 50.8288 122.479 51.0543C122.479 51.2798 120.034 51.4626 117.017 51.4626Z" fill="#0B24FB"/>
<path d="M63.2189 30.9106C60.2024 30.9106 57.7571 30.7278 57.7571 30.5023C57.7571 30.2768 60.2024 30.094 63.2189 30.094C66.2353 30.094 68.6807 30.2768 68.6807 30.5023C68.6807 30.7278 66.2353 30.9106 63.2189 30.9106Z" fill="#0B24FB"/>
<path d="M65.3831 29.1618L81.8066 45.5326L81.5748 45.7637L65.1512 29.3929L65.3831 29.1618Z" fill="white"/>
<path d="M86.5678 47.6244H114.15V47.9512H86.5678V47.6244Z" fill="white"/>
<path d="M119.184 49.8527L134.611 65.23L134.379 65.4611L118.952 50.0838L119.184 49.8527Z" fill="white"/>
<path d="M139.274 67.3599H157.708V67.6867H139.274V67.3599Z" fill="white"/>
<path d="M162.719 69.4287L181.037 87.6875L180.805 87.9186L162.487 69.6598L162.719 69.4287Z" fill="white"/>
<path d="M160.575 70.545C161.175 70.545 161.761 70.3678 162.26 70.0358C162.758 69.7038 163.147 69.2318 163.376 68.6797C163.606 68.1276 163.666 67.52 163.549 66.9338C163.432 66.3477 163.143 65.8093 162.719 65.3867C162.295 64.9641 161.755 64.6763 161.167 64.5597C160.579 64.4431 159.969 64.5029 159.415 64.7316C158.862 64.9603 158.388 65.3476 158.055 65.8445C157.722 66.3414 157.544 66.9256 157.544 67.5233C157.545 68.3244 157.865 69.0924 158.433 69.6589C159.001 70.2254 159.772 70.5441 160.575 70.545ZM160.575 64.8284C161.11 64.8284 161.633 64.9865 162.077 65.2826C162.522 65.5787 162.869 65.9995 163.073 66.492C163.278 66.9844 163.331 67.5262 163.227 68.049C163.123 68.5717 162.865 69.0519 162.487 69.4288C162.109 69.8057 161.627 70.0624 161.103 70.1663C160.579 70.2703 160.035 70.217 159.541 70.013C159.047 69.809 158.625 69.4636 158.328 69.0205C158.031 68.5773 157.872 68.0563 157.872 67.5233C157.873 66.8088 158.158 66.1239 158.665 65.6187C159.172 65.1135 159.859 64.8293 160.575 64.8284Z" fill="white"/>
<path d="M136.407 70.545C137.007 70.545 137.593 70.3678 138.091 70.0357C138.59 69.7037 138.978 69.2318 139.208 68.6796C139.437 68.1275 139.497 67.5199 139.38 66.9338C139.263 66.3476 138.975 65.8092 138.551 65.3866C138.127 64.964 137.586 64.6762 136.998 64.5597C136.41 64.4431 135.801 64.5029 135.247 64.7316C134.693 64.9603 134.22 65.3476 133.887 65.8445C133.553 66.3414 133.376 66.9256 133.376 67.5233C133.377 68.3244 133.696 69.0925 134.264 69.659C134.833 70.2255 135.603 70.5441 136.407 70.545ZM136.407 64.8284C136.942 64.8284 137.464 64.9865 137.909 65.2826C138.354 65.5787 138.7 65.9996 138.905 66.492C139.109 66.9844 139.163 67.5263 139.059 68.049C138.954 68.5718 138.697 69.0519 138.319 69.4288C137.941 69.8057 137.459 70.0624 136.934 70.1663C136.41 70.2703 135.866 70.217 135.372 70.013C134.878 69.809 134.456 69.4636 134.159 69.0205C133.862 68.5773 133.704 68.0563 133.704 67.5233C133.704 66.8088 133.989 66.1238 134.496 65.6186C135.003 65.1134 135.69 64.8293 136.407 64.8284Z" fill="white"/>
<path d="M117.017 50.8094C117.617 50.8094 118.203 50.6322 118.702 50.3002C119.2 49.9681 119.589 49.4962 119.818 48.9441C120.048 48.392 120.108 47.7844 119.991 47.1983C119.874 46.6121 119.585 46.0737 119.161 45.6511C118.737 45.2286 118.197 44.9408 117.609 44.8242C117.021 44.7076 116.411 44.7674 115.857 44.9961C115.303 45.2248 114.83 45.6121 114.497 46.109C114.164 46.6059 113.986 47.1901 113.986 47.7877C113.987 48.5889 114.307 49.3569 114.875 49.9234C115.443 50.4899 116.214 50.8085 117.017 50.8094ZM117.017 45.093C117.552 45.093 118.075 45.251 118.519 45.5472C118.964 45.8433 119.311 46.2641 119.515 46.7566C119.72 47.249 119.773 47.7908 119.669 48.3135C119.565 48.8363 119.307 49.3164 118.929 49.6933C118.551 50.0702 118.069 50.3268 117.545 50.4308C117.02 50.5348 116.477 50.4814 115.983 50.2774C115.489 50.0735 115.067 49.7281 114.77 49.2849C114.472 48.8417 114.314 48.3207 114.314 47.7877C114.315 47.0733 114.6 46.3883 115.107 45.8831C115.614 45.3779 116.301 45.0938 117.017 45.093V45.093Z" fill="white"/>
<path d="M83.7006 50.8094C84.3001 50.8094 84.8862 50.6322 85.3847 50.3002C85.8832 49.9681 86.2718 49.4962 86.5012 48.9441C86.7306 48.392 86.7907 47.7844 86.6737 47.1983C86.5567 46.6121 86.268 46.0737 85.8441 45.6511C85.4201 45.2286 84.88 44.9408 84.2919 44.8242C83.7039 44.7076 83.0944 44.7674 82.5405 44.9961C81.9866 45.2248 81.5131 45.6121 81.18 46.109C80.847 46.6059 80.6692 47.1901 80.6691 47.7877C80.67 48.5889 80.9897 49.3569 81.558 49.9234C82.1263 50.4899 82.8969 50.8085 83.7006 50.8094ZM83.7006 45.093C84.2353 45.093 84.758 45.251 85.2025 45.5472C85.6471 45.8433 85.9936 46.2641 86.1982 46.7566C86.4029 47.249 86.4564 47.7908 86.3521 48.3135C86.2477 48.8363 85.9903 49.3164 85.6122 49.6933C85.2341 50.0702 84.7523 50.3268 84.2279 50.4308C83.7035 50.5348 83.1599 50.4814 82.6659 50.2774C82.1719 50.0735 81.7497 49.7281 81.4527 49.2849C81.1556 48.8417 80.997 48.3207 80.9971 47.7877C80.9979 47.0733 81.283 46.3883 81.7898 45.8831C82.2966 45.3779 82.9838 45.0937 83.7006 45.093V45.093Z" fill="white"/>
<path d="M63.2186 30.2574C63.8182 30.2574 64.4043 30.0802 64.9028 29.7482C65.4013 29.4161 65.7898 28.9442 66.0193 28.3921C66.2487 27.84 66.3087 27.2324 66.1917 26.6463C66.0748 26.0601 65.7861 25.5217 65.3621 25.0991C64.9382 24.6766 64.398 24.3888 63.81 24.2722C63.222 24.1556 62.6125 24.2154 62.0585 24.4441C61.5046 24.6728 61.0312 25.0601 60.6981 25.557C60.365 26.0539 60.1872 26.6381 60.1872 27.2357C60.1881 28.0368 60.5078 28.8049 61.0761 29.3714C61.6444 29.9379 62.4149 30.2565 63.2186 30.2574ZM63.2186 24.541C63.7533 24.541 64.276 24.699 64.7206 24.9952C65.1652 25.2913 65.5117 25.7121 65.7163 26.2046C65.9209 26.697 65.9745 27.2388 65.8701 27.7615C65.7658 28.2843 65.5083 28.7644 65.1302 29.1413C64.7521 29.5182 64.2704 29.7748 63.746 29.8788C63.2215 29.9828 62.678 29.9294 62.184 29.7254C61.69 29.5214 61.2677 29.176 60.9707 28.7329C60.6736 28.2897 60.5151 27.7687 60.5151 27.2357C60.5159 26.5213 60.801 25.8363 61.3079 25.3311C61.8147 24.8259 62.5019 24.5418 63.2186 24.541V24.541Z" fill="white"/>
<path d="M182.968 92.8664C183.568 92.8664 184.154 92.6892 184.653 92.3572C185.151 92.0252 185.54 91.5533 185.769 91.0011C185.999 90.449 186.059 89.8414 185.942 89.2553C185.825 88.6691 185.536 88.1307 185.112 87.7081C184.688 87.2855 184.148 86.9977 183.56 86.8811C182.972 86.7645 182.362 86.8243 181.809 87.053C181.255 87.2817 180.781 87.669 180.448 88.1659C180.115 88.6629 179.937 89.2471 179.937 89.8447C179.938 90.6458 180.258 91.4139 180.826 91.9803C181.394 92.5468 182.165 92.8655 182.968 92.8664ZM182.968 87.1499C183.503 87.1498 184.026 87.3079 184.471 87.604C184.915 87.9001 185.262 88.321 185.466 88.8134C185.671 89.3058 185.724 89.8476 185.62 90.3704C185.516 90.8931 185.258 91.3733 184.88 91.7502C184.502 92.1271 184.02 92.3838 183.496 92.4878C182.972 92.5917 182.428 92.5384 181.934 92.3344C181.44 92.1305 181.018 91.7851 180.721 91.3419C180.424 90.8987 180.265 90.3777 180.265 89.8447C180.266 89.1303 180.551 88.4453 181.058 87.9401C181.565 87.4349 182.252 87.1507 182.968 87.1499Z" fill="white"/>
<path d="M160.575 49.6934C161.293 49.6934 162.003 49.8342 162.665 50.1078C163.328 50.3814 163.93 50.7824 164.437 51.2879C164.945 51.7935 165.347 52.3937 165.621 53.0542C165.896 53.7147 166.037 54.4227 166.037 55.1376C166.037 58.1444 160.575 68.0677 160.575 68.0677C160.575 68.0677 155.114 58.1444 155.114 55.1376C155.114 54.4227 155.255 53.7147 155.529 53.0542C155.804 52.3937 156.206 51.7935 156.713 51.2879C157.22 50.7824 157.823 50.3814 158.485 50.1078C159.148 49.8342 159.858 49.6934 160.575 49.6934ZM160.575 57.9958C161.142 57.9958 161.697 57.8282 162.168 57.5141C162.64 57.2001 163.007 56.7537 163.224 56.2314C163.442 55.7091 163.498 55.1344 163.388 54.58C163.277 54.0256 163.004 53.5163 162.603 53.1165C162.202 52.7168 161.691 52.4446 161.135 52.3343C160.578 52.224 160.002 52.2806 159.478 52.497C158.954 52.7133 158.506 53.0796 158.191 53.5497C157.876 54.0197 157.708 54.5723 157.708 55.1376C157.708 55.8957 158.01 56.6227 158.548 57.1587C159.085 57.6947 159.815 57.9958 160.575 57.9958Z" fill="#0B24FB"/>
<path d="M117.017 29.2773C118.466 29.2773 119.855 29.8509 120.879 30.8719C121.904 31.8929 122.479 33.2777 122.479 34.7216C122.479 37.7284 117.017 47.6517 117.017 47.6517C117.017 47.6517 111.555 37.7284 111.555 34.7216C111.555 34.0067 111.697 33.2987 111.971 32.6382C112.246 31.9776 112.648 31.3775 113.155 30.8719C113.662 30.3664 114.264 29.9654 114.927 29.6918C115.59 29.4182 116.3 29.2773 117.017 29.2773ZM117.017 37.5798C117.584 37.5798 118.139 37.4122 118.61 37.0981C119.082 36.7841 119.449 36.3377 119.666 35.8154C119.883 35.2931 119.94 34.7184 119.83 34.164C119.719 33.6095 119.446 33.1003 119.045 32.7005C118.644 32.3008 118.133 32.0286 117.577 31.9183C117.02 31.808 116.444 31.8646 115.92 32.0809C115.396 32.2973 114.948 32.6636 114.633 33.1337C114.318 33.6037 114.15 34.1563 114.15 34.7216C114.15 35.4797 114.452 36.2067 114.99 36.7427C115.527 37.2787 116.257 37.5798 117.017 37.5798Z" fill="#0B24FB"/>
<path d="M9.79377 115.601H84.1538V116H9.79377V115.601Z" fill="#FFD100"/>
<path d="M22.7922 11.8376C23.9483 15.2493 25.7209 18.3579 29.3336 18.3579C32.9462 18.3579 35.6713 15.4329 35.8749 11.8376C36.135 7.24345 33.0296 5.29825 29.3336 5.31728C24.9673 5.33976 21.4203 7.7887 22.7922 11.8376Z" fill="#323765"/>
<path d="M22.9645 11.3228H35.875V27.6235H22.9645V11.3228Z" fill="#FFD100"/>
<path d="M22.5854 23.4669H21.4873C21.4873 23.4669 18.803 26.8723 20.0232 31.4939C21.2433 36.1155 20.2672 36.9669 20.2672 36.9669C20.2672 36.9669 18.6787 41.9717 20.3869 49.5122C22.0951 57.0527 18.803 59.1019 18.803 59.1019L21.8534 53.0209L23.5615 36.9669L22.5854 23.4669Z" fill="#575A89"/>
<path opacity="0.1" d="M22.5854 23.8669H21.4873C21.4873 23.8669 18.803 27.2723 20.0232 31.8939C21.2433 36.5155 20.2672 37.3669 20.2672 37.3669C20.2672 37.3669 18.6787 42.3717 20.3869 49.9122C22.0951 57.4527 18.803 59.5019 18.803 59.5019L21.8534 53.4209L23.5615 37.3669L22.5854 23.8669Z" fill="black"/>
<path d="M26.4285 17.5683C26.4285 17.5683 27.4046 21.4602 26.9165 21.4602C26.4285 21.4602 24.7203 23.5277 24.7203 23.5277L23.6222 27.5412L24.4763 30.4602L27.4046 29.8521L31.0649 25.8386L32.1631 24.744L33.1392 21.2169C33.1392 21.2169 31.919 19.7575 32.7731 18.5413C33.6272 17.3251 26.4285 17.5683 26.4285 17.5683Z" fill="#FBBEBE"/>
<path opacity="0.1" d="M26.4285 17.5683C26.4285 17.5683 27.4046 21.4602 26.9165 21.4602C26.4285 21.4602 24.7203 23.5277 24.7203 23.5277L23.6222 27.5412L24.4763 30.4602L27.4046 29.8521L31.0649 25.8386L32.1631 24.744L33.1392 21.2169C33.1392 21.2169 31.919 19.7575 32.7731 18.5413C33.6272 17.3251 26.4285 17.5683 26.4285 17.5683Z" fill="black"/>
<path d="M55.9555 28.3926L58.6398 24.0143C58.6398 24.0143 61.5374 17.6237 63.6116 19.9346C65.6858 22.2454 60.47 26.9332 60.47 26.9332L57.7857 30.4602L55.9555 28.3926Z" fill="#FBBEBE"/>
<path d="M20.3279 66.46L22.2801 80.6896C22.2801 80.6896 22.0361 81.7842 24.4763 85.7977C26.9166 89.8112 33.5053 98.5679 33.5053 98.5679L35.4575 94.9193C35.4575 94.9193 33.1393 83.3653 29.1128 80.9329L29.6009 63.4194L20.3279 66.46Z" fill="#FBBEBE"/>
<path opacity="0.1" d="M20.3279 66.46L22.2801 80.6896C22.2801 80.6896 22.0361 81.7842 24.4763 85.7977C26.9166 89.8112 33.5053 98.5679 33.5053 98.5679L35.4575 94.9193C35.4575 94.9193 33.1393 83.3653 29.1128 80.9329L29.6009 63.4194L20.3279 66.46Z" fill="black"/>
<path d="M35.4575 93.4598L32.7732 98.5679C32.7732 98.5679 34.9695 104.771 34.1154 105.379C33.2613 105.987 32.1632 111.46 34.4814 110.852C36.7997 110.244 38.6299 107.811 38.6299 107.446C38.6299 107.081 37.2877 101.973 38.0198 100.757C38.7519 99.5409 39.2399 99.176 39.2399 99.176L41.0701 102.217L41.6802 101.852L38.6299 96.7436C38.6299 96.7436 38.2638 95.7706 36.7997 95.1625L35.4575 93.4598Z" fill="#FFD100"/>
<path opacity="0.1" d="M35.4575 93.4598L32.7732 98.5679C32.7732 98.5679 34.9695 104.771 34.1154 105.379C33.2613 105.987 32.1632 111.46 34.4814 110.852C36.7997 110.244 38.6299 107.811 38.6299 107.446C38.6299 107.081 37.2877 101.973 38.0198 100.757C38.7519 99.5409 39.2399 99.176 39.2399 99.176L41.0701 102.217L41.6802 101.852L38.6299 96.7436C38.6299 96.7436 38.2638 95.7706 36.7997 95.1625L35.4575 93.4598Z" fill="black"/>
<path d="M29.5727 64.4411C29.5727 64.4411 28.6251 77.8923 30.6993 81.4194V98.9328L33.5056 99.2976C33.5056 99.2976 39.1729 90.0256 37.0986 80.904C35.0244 71.7825 39.2402 63.4194 39.2402 63.4194L29.5727 64.4411Z" fill="#FBBEBE"/>
<path d="M30.2719 20.548C27.4417 20.548 25.1474 18.261 25.1474 15.4399C25.1474 12.6188 27.4417 10.3318 30.2719 10.3318C33.1022 10.3318 35.3965 12.6188 35.3965 15.4399C35.3965 18.261 33.1022 20.548 30.2719 20.548Z" fill="#FBBEBE"/>
<path d="M25.0865 28.879L30.211 22.4331L33.1393 20.4872L34.3595 22.0683L37.7758 23.0412C37.7758 23.0412 39.9721 23.5277 42.2903 26.2034C44.6086 28.879 48.757 30.4601 48.757 30.4601L52.1734 29.852C52.1734 29.852 56.1998 28.0277 56.1998 27.5412C56.1998 27.0547 59.7382 30.825 58.8841 32.2844C58.03 33.7439 56.1998 35.5682 55.2237 36.5412C54.2476 37.5142 53.8815 40.3114 47.9029 39.4601C41.9243 38.6087 39.728 35.6898 39.728 35.6898C39.728 35.6898 38.6299 41.2844 35.4576 42.379C32.2852 43.4736 21.9142 44.2033 21.9142 44.2033L19.7179 36.906C19.7179 36.906 17.2777 33.7439 20.572 29.1223C20.572 29.1223 20.6353 26.5376 20.9894 24.8176C21.1272 24.1486 21.3089 23.6104 21.5481 23.4061C22.4022 22.6764 26.9167 21.4602 26.9167 21.4602C26.9167 21.4602 26.1846 23.8926 25.8186 24.0142C25.4525 24.1358 24.5984 28.2709 25.0865 28.879Z" fill="#575A89"/>
<path d="M41.4972 65.1829C35.3526 64.7573 31.7752 65.7606 30.1793 66.5256C29.8826 66.6595 29.6032 66.8285 29.3471 67.0291C29.23 67.1277 29.1739 67.2043 29.1739 67.2505C29.1739 67.6154 20.755 68.3451 17.7047 67.6154C14.6544 66.8856 19.7789 51.1965 21.121 49.8587C22.4632 48.5208 21.7396 43.6244 21.7396 43.6244C21.7396 43.6244 24.4154 43.0479 25.1475 43.2911C25.8795 43.5344 29.6619 42.9263 31.0041 42.1966C32.3462 41.4668 34.0544 41.9533 35.1525 41.7101C35.643 41.6018 35.8907 41.7843 36.014 42.0202C36.2058 42.3741 36.4954 42.6658 36.8485 42.8606C39.4388 44.348 41.518 54.6323 43.0834 60.3181C44.7916 66.5208 41.4972 65.1829 41.4972 65.1829Z" fill="#FFD100"/>
<path d="M30.2111 97.8383L29.723 100.514C29.723 100.514 27.1608 104.163 27.8928 107.203C27.8928 107.203 27.2828 111.217 25.0865 112.311C22.8903 113.406 24.7205 115.96 26.7947 115.838C28.8689 115.717 30.8211 115.96 31.0652 115.352C31.3092 114.744 32.7733 108.784 32.7733 108.784L33.1739 115.758L34.394 115.88L33.9935 107.811C33.9935 107.811 34.9696 105.987 33.6274 102.946L33.9662 98.2792C33.9662 98.2792 30.5771 99.0545 30.2111 97.8383Z" fill="#FFD100"/>
<path opacity="0.1" d="M30.1792 66.5257C29.8825 66.6595 29.6031 66.8286 29.347 67.0292C29.2824 65.8799 28.909 58.9292 29.3568 59.0411L30.1792 66.5257Z" fill="black"/>
<path d="M32.3933 8.40573C32.3933 8.40573 32.4501 8.09081 34.6697 8.92049C36.8893 9.75016 38.2197 15.8728 37.11 19.468C36.6627 20.9169 37.0265 21.9615 37.6204 22.6925C39.8487 25.4353 38.9715 29.5549 35.7257 30.9654C35.6341 31.0052 35.5406 31.0445 35.4453 31.0834L34.058 31.9131C34.058 31.9131 35.8265 29.5937 34.9415 26.6267C34.1729 24.0988 34.078 21.4149 34.6661 18.8393C34.7676 18.4048 34.883 17.9569 35.014 17.4998C36.1237 13.628 35.584 14.0752 31.6997 10.2033C31.6997 10.2033 29.4801 11.8627 27.538 12.6924C25.5958 13.522 23.9311 14.3517 25.3184 17.1173C26.7056 19.8829 30.035 22.3719 27.8154 25.9671C25.5958 29.5624 25.3184 28.1796 25.5958 29.5624L25.8733 30.9452L24.2086 29.2858L25.3184 31.4983C25.3184 31.4983 21.7115 31.4983 20.6018 28.7327L20.0469 29.2858C20.0469 29.2858 17.8273 25.414 21.989 21.8188C21.989 21.8188 23.3762 20.9891 21.4341 18.2235C19.492 15.4579 20.9835 9.51195 23.4806 8.40572C25.9776 7.29949 32.3933 8.40573 32.3933 8.40573Z" fill="#323765"/>
<path d="M29.3335 6.68996C27.9074 6.68996 26.7514 5.53763 26.7514 4.11616C26.7514 2.69469 27.9074 1.54236 29.3335 1.54236C30.7595 1.54236 31.9155 2.69469 31.9155 4.11616C31.9155 5.53763 30.7595 6.68996 29.3335 6.68996Z" fill="#323765"/>
<path d="M32.4323 2.74348C32.4323 2.10545 32.1945 1.49017 31.7651 1.01701C31.3357 0.543837 30.7453 0.246502 30.1084 0.182675C30.1934 0.174265 30.2795 0.169678 30.3666 0.169678C31.0514 0.169678 31.7082 0.440845 32.1925 0.923527C32.6767 1.40621 32.9487 2.06087 32.9487 2.74348C32.9487 3.4261 32.6767 4.08075 32.1925 4.56343C31.7082 5.04612 31.0514 5.31728 30.3666 5.31728C30.2795 5.31728 30.1934 5.3127 30.1084 5.30429C30.7453 5.24046 31.3357 4.94312 31.7651 4.46995C32.1945 3.99678 32.4323 3.38151 32.4323 2.74348Z" fill="#323765"/>
<path d="M63.2189 9.67798C63.9361 9.67798 64.6464 9.8188 65.309 10.0924C65.9717 10.366 66.5738 10.767 67.0809 11.2726C67.5881 11.7781 67.9904 12.3783 68.2649 13.0388C68.5394 13.6993 68.6807 14.4073 68.6807 15.1222C68.6807 18.129 63.2189 28.0523 63.2189 28.0523C63.2189 28.0523 57.7571 18.129 57.7571 15.1222C57.7571 14.4073 57.8984 13.6993 58.1728 13.0388C58.4473 12.3783 58.8496 11.7781 59.3568 11.2726C59.864 10.767 60.4661 10.366 61.1287 10.0924C61.7914 9.8188 62.5016 9.67798 63.2189 9.67798ZM63.2189 17.9805C63.786 17.9805 64.3404 17.8128 64.8119 17.4988C65.2835 17.1847 65.651 16.7383 65.868 16.216C66.0851 15.6938 66.1419 15.1191 66.0312 14.5646C65.9206 14.0102 65.6475 13.5009 65.2465 13.1012C64.8454 12.7014 64.3345 12.4292 63.7783 12.3189C63.2221 12.2086 62.6455 12.2652 62.1216 12.4816C61.5976 12.6979 61.1498 13.0643 60.8347 13.5343C60.5196 14.0043 60.3514 14.5569 60.3514 15.1222C60.3514 15.8803 60.6535 16.6073 61.1913 17.1433C61.729 17.6793 62.4584 17.9805 63.2189 17.9805Z" fill="#0B24FB"/>
<path d="M107.248 110.977C105.616 110.977 104.293 109.658 104.293 108.031C104.293 106.404 105.616 105.085 107.248 105.085C108.88 105.085 110.204 106.404 110.204 108.031C110.204 109.658 108.88 110.977 107.248 110.977Z" fill="#EB5508"/>
<path d="M88.861 98.5163C87.2288 98.5163 85.9057 97.1974 85.9057 95.5704C85.9057 93.9434 87.2288 92.6245 88.861 92.6245C90.4932 92.6245 91.8164 93.9434 91.8164 95.5704C91.8164 97.1974 90.4932 98.5163 88.861 98.5163Z" fill="#EB5508"/>
<path d="M111.6 86.9137C109.968 86.9137 108.644 85.5948 108.644 83.9678C108.644 82.3409 109.968 81.022 111.6 81.022C113.232 81.022 114.555 82.3409 114.555 83.9678C114.555 85.5948 113.232 86.9137 111.6 86.9137Z" fill="#EB5508"/>
</g>
<defs>
<clipPath id="clip0">
<rect width="186" height="116" fill="white" transform="matrix(-1 0 0 1 186 0)"/>
</clipPath>
</defs>
</svg>
