<svg width="155" height="105" viewBox="0 0 155 105" fill="none" xmlns="http://www.w3.org/2000/svg">
<path d="M131.244 85.683C131.244 85.683 129.562 84.5729 127.895 85.3627C127.895 85.3627 128.408 86.3523 130.519 86.2579L131.244 85.683Z" fill="#FF610F"/>
<path d="M131.452 85.7432C131.452 85.7432 131.964 87.6923 130.681 89.0186C130.681 89.0186 129.909 88.2138 130.681 86.2456L131.452 85.7432Z" fill="#FF610F"/>
<path d="M133.549 83.8722C133.549 83.8722 133.425 82.2132 129.683 82.7635C129.683 82.7635 129.665 83.8338 130.979 84.3403C132.293 84.8467 132.894 84.4197 133.549 83.8722Z" fill="#FF610F"/>
<path d="M133.78 83.8598C133.78 83.8598 135.363 84.369 133.952 87.8798C133.952 87.8798 132.908 87.6458 132.72 86.2497C132.533 84.8535 133.094 84.369 133.78 83.8598Z" fill="#FF610F"/>
<path d="M135.9 81.5084C135.9 81.5084 136.113 78.7805 132.288 79.0611C132.288 79.0611 132.014 81.5248 135.224 82.164L135.9 81.5084Z" fill="#FF610F"/>
<path d="M138.428 78.4287C138.428 78.4287 137.903 75.3381 134.08 76.2592C134.08 76.2592 134.065 78.9324 137.803 79.1664L138.428 78.4287Z" fill="#FF610F"/>
<path d="M140.275 75.245C140.275 75.245 139.397 72.2338 135.608 73.1358C135.608 73.1358 136.509 75.8432 140.023 75.8021L140.275 75.245Z" fill="#FF610F"/>
<path d="M142.03 72.1366C142.03 72.1366 141.171 69.0117 137.513 69.9466C137.513 69.9466 138.734 72.9154 141.789 72.6663L142.03 72.1366Z" fill="#FF610F"/>
<path d="M143.161 69.1829C143.161 69.1829 142.502 65.3669 139.095 66.2073C139.095 66.2073 140.086 69.6839 142.914 69.7386L143.161 69.1829Z" fill="#FF610F"/>
<path d="M144.221 65.6145C144.221 65.6145 143.43 61.7616 139.978 62.8771C139.978 62.8771 141.331 66.5165 143.977 66.1401L144.221 65.6145Z" fill="#FF610F"/>
<path d="M144.878 62.2926C144.878 62.2926 143.62 58.441 140.952 58.545C140.952 58.545 142.239 62.6143 144.648 63.0619L144.878 62.2926Z" fill="#FF610F"/>
<path d="M136.004 81.4892C136.004 81.4892 138.717 81.1333 138.635 84.9685C138.635 84.9685 136.183 85.3668 135.384 82.1968L136.004 81.4892Z" fill="#FF610F"/>
<path d="M138.555 78.326C138.555 78.326 141.691 78.3151 141.43 82.2406C141.43 82.2406 138.799 82.7101 137.93 79.0665L138.555 78.326Z" fill="#FF610F"/>
<path d="M140.305 75.4955C140.305 75.4955 143.15 74.161 144.972 77.6047C144.972 77.6047 142.343 78.7175 140.054 76.0512L140.305 75.4955Z" fill="#FF610F"/>
<path d="M143.546 6.69037H12.0223C11.7115 6.69037 11.4135 6.81381 11.1938 7.03353C10.974 7.25326 10.8506 7.55127 10.8506 7.86201V11.2756H144.718V7.86201C144.718 7.55127 144.594 7.25326 144.375 7.03353C144.155 6.81381 143.857 6.69037 143.546 6.69037Z" fill="#3F3D56"/>
<path d="M10.8506 11.2757V88.0948C10.8506 88.7213 11.0995 89.3222 11.5426 89.7653C11.9856 90.2083 12.5865 90.4572 13.2131 90.4572H142.355C142.982 90.4572 143.583 90.2083 144.026 89.7653C144.469 89.3222 144.718 88.7213 144.718 88.0948V11.2757H10.8506Z" fill="white"/>
<path opacity="0.8" d="M12.9718 9.49492C13.2742 9.49492 13.5193 9.2498 13.5193 8.94743C13.5193 8.64506 13.2742 8.39993 12.9718 8.39993C12.6694 8.39993 12.4243 8.64506 12.4243 8.94743C12.4243 9.2498 12.6694 9.49492 12.9718 9.49492Z" fill="#FA5959"/>
<path opacity="0.8" d="M14.4777 9.49492C14.7801 9.49492 15.0252 9.2498 15.0252 8.94743C15.0252 8.64506 14.7801 8.39993 14.4777 8.39993C14.1753 8.39993 13.9302 8.64506 13.9302 8.94743C13.9302 9.2498 14.1753 9.49492 14.4777 9.49492Z" fill="#FED253"/>
<path opacity="0.8" d="M15.9836 9.49492C16.2859 9.49492 16.5311 9.2498 16.5311 8.94743C16.5311 8.64506 16.2859 8.39993 15.9836 8.39993C15.6812 8.39993 15.436 8.64506 15.436 8.94743C15.436 9.2498 15.6812 9.49492 15.9836 9.49492Z" fill="#8CCF4D"/>
<g opacity="0.3">
<path opacity="0.3" d="M139.722 15.928H15.9834V85.7337H139.722V15.928Z" stroke="#3F3D56" stroke-miterlimit="10"/>
<path opacity="0.3" d="M123.57 15.928H32.1353V85.7337H123.57V15.928Z" stroke="#3F3D56" stroke-miterlimit="10"/>
<path opacity="0.3" d="M107.418 15.928H48.2866V85.7337H107.418V15.928Z" stroke="#3F3D56" stroke-miterlimit="10"/>
<path opacity="0.3" d="M91.2667 15.928H64.4385V85.7337H91.2667V15.928Z" stroke="#3F3D56" stroke-miterlimit="10"/>
<path opacity="0.3" d="M77.8525 15.928V85.7337" stroke="#3F3D56" stroke-miterlimit="10"/>
<path opacity="0.3" d="M139.722 26.0567H15.9834V75.605H139.722V26.0567Z" stroke="#3F3D56" stroke-miterlimit="10"/>
<path opacity="0.3" d="M139.722 36.0485H15.9834V65.6132H139.722V36.0485Z" stroke="#3F3D56" stroke-miterlimit="10"/>
<path opacity="0.3" d="M139.722 46.0403H15.9834V55.6214H139.722V46.0403Z" stroke="#3F3D56" stroke-miterlimit="10"/>
</g>
<path opacity="0.1" d="M45.0699 19.8289H35.3516V23.3876H45.0699V19.8289Z" fill="#3F3D56"/>
<path opacity="0.1" d="M27.4128 29.5469H20.1582V33.1057H27.4128V29.5469Z" fill="#3F3D56"/>
<path opacity="0.1" d="M60.8112 19.8289H51.0928V23.3876H60.8112V19.8289Z" fill="#3F3D56"/>
<path opacity="0.1" d="M75.5939 19.8289H65.8755V23.3876H75.5939V19.8289Z" fill="#3F3D56"/>
<path opacity="0.1" d="M89.2818 19.8289H79.5635V23.3876H89.2818V19.8289Z" fill="#3F3D56"/>
<path opacity="0.1" d="M104.612 19.8289H94.8936V23.3876H104.612V19.8289Z" fill="#3F3D56"/>
<path opacity="0.1" d="M120.216 19.8289H110.498V23.3876H120.216V19.8289Z" fill="#3F3D56"/>
<path opacity="0.1" d="M136.778 19.8289H127.06V23.3876H136.778V19.8289Z" fill="#3F3D56"/>
<path d="M60.9002 39.1212H54.5859V45.234H60.9002V39.1212Z" fill="url(#paint0_linear)"/>
<path d="M60.7919 39.2267H54.6953V45.1287H60.7919V39.2267Z" fill="#F9A825"/>
<path d="M73.909 37.7964H67.5947V43.9091H73.909V37.7964Z" fill="url(#paint1_linear)"/>
<path d="M73.8007 37.9017H67.7041V43.8037H73.8007V37.9017Z" fill="#FFFFA5"/>
<path d="M98.9578 58.6011H92.6436V64.7139H98.9578V58.6011Z" fill="url(#paint2_linear)"/>
<path d="M98.8495 58.7065H92.7529V64.6085H98.8495V58.7065Z" fill="#FFFFA5"/>
<path d="M43.3494 28.2275H37.0352V34.3403H43.3494V28.2275Z" fill="url(#paint3_linear)"/>
<path d="M43.2401 28.3329H37.1436V34.2349H43.2401V28.3329Z" fill="#FFFFA5"/>
<path d="M55.8958 36.9875H49.5815V43.1002H55.8958V36.9875Z" fill="url(#paint4_linear)"/>
<path d="M55.786 37.0928H49.6895V42.9948H55.786V37.0928Z" fill="#FF610F"/>
<path d="M106.344 58.5573H100.029V64.6701H106.344V58.5573Z" fill="url(#paint5_linear)"/>
<path d="M106.236 58.6628H100.139V64.5647H106.236V58.6628Z" fill="#F9A825"/>
<path d="M117.431 28.3082H111.117V34.421H117.431V28.3082Z" fill="url(#paint6_linear)"/>
<path d="M117.323 28.4136H111.226V34.3156H117.323V28.4136Z" fill="#F9A825"/>
<path d="M116.746 47.7443H110.432V53.8571H116.746V47.7443Z" fill="url(#paint7_linear)"/>
<path d="M116.639 47.8497H110.542V53.7517H116.639V47.8497Z" fill="#F9A825"/>
<path d="M121.537 49.1131H115.223V55.2259H121.537V49.1131Z" fill="url(#paint8_linear)"/>
<path d="M121.429 49.2184H115.333V55.1204H121.429V49.2184Z" fill="#F9A825"/>
<path d="M101.34 56.4235H95.0254V62.5362H101.34V56.4235Z" fill="url(#paint9_linear)"/>
<path d="M101.23 56.5289H95.1333V62.4309H101.23V56.5289Z" fill="#FF610F"/>
<path d="M102.024 37.9455H95.7095V44.0583H102.024V37.9455Z" fill="url(#paint10_linear)"/>
<path d="M101.914 38.0509H95.8179V43.9529H101.914V38.0509Z" fill="#FF610F"/>
<path opacity="0.1" d="M27.4128 39.1281H20.1582V42.6869H27.4128V39.1281Z" fill="#3F3D56"/>
<path opacity="0.1" d="M27.4128 49.1199H20.1582V52.6786H27.4128V49.1199Z" fill="#3F3D56"/>
<path opacity="0.1" d="M27.4128 59.1117H20.1582V62.6704H27.4128V59.1117Z" fill="#3F3D56"/>
<path opacity="0.1" d="M27.4128 69.1035H20.1582V72.6622H27.4128V69.1035Z" fill="#3F3D56"/>
<path opacity="0.1" d="M27.4128 79.0952H20.1582V82.654H27.4128V79.0952Z" fill="#3F3D56"/>
<path d="M42.1957 48.0537C42.3982 47.925 42.3175 47.5801 42.1094 47.461C41.9014 47.3419 41.6427 47.3816 41.4086 47.4282C41.4186 47.3685 41.4094 47.3072 41.3823 47.2531C41.3553 47.199 41.3118 47.1549 41.258 47.127V47.075C41.3949 46.9381 41.3429 46.6644 41.1759 46.544C41.0089 46.4235 40.7489 46.418 40.5244 46.429C40.5403 46.2929 40.5238 46.155 40.4763 46.0265C40.4287 45.8981 40.3514 45.7827 40.2506 45.6899C40.2114 45.6475 40.1576 45.6216 40.1001 45.6173C39.9632 45.6173 39.9249 45.7925 39.9153 45.9225C39.8892 46.264 39.8329 46.6025 39.7469 46.934L35.4927 54.0515C35.0191 54.7358 36.4906 52.6827 36.017 53.374C35.7771 53.7502 35.4961 54.0986 35.1793 54.4128C34.8948 54.6667 34.5765 54.88 34.2334 55.0465C34.0044 55.0532 33.7788 54.9892 33.5874 54.8631C33.347 54.6948 33.1369 54.487 32.9659 54.2486C32.5951 53.7772 32.2598 53.279 31.9626 52.758C31.8596 52.5931 31.7821 52.4136 31.7327 52.2256C31.6697 51.9299 31.7327 51.6096 31.6163 51.3318C31.5668 51.2282 31.5052 51.1308 31.4329 51.0416L31.1386 50.6515V50.6337C31.1058 50.0561 30.6363 49.6099 30.1983 49.2294C29.8259 48.9037 29.4222 48.5642 28.9308 48.5012C28.668 48.467 28.3983 48.5177 28.1355 48.4848C27.9206 48.4574 27.7166 48.3767 27.5031 48.3411C27.2976 48.313 27.0895 48.3089 26.8831 48.3288L26.7955 48.248C27.2497 48.0561 27.6356 47.7318 27.9028 47.3173C28.1054 46.9902 28.2163 46.6124 28.4038 46.2757C28.6324 45.8651 28.9718 45.5256 29.225 45.1314C29.8369 44.1966 29.9491 42.9934 29.7014 41.9039C29.4536 40.8144 28.8733 39.8248 28.1957 38.942C26.8817 37.242 24.6779 36.6151 22.6029 36.9436C22.466 36.9655 22.3291 36.9915 22.1922 37.0216C21.8431 37.0951 21.5024 37.2038 21.1752 37.346C20.7326 37.5273 20.3484 37.827 20.0651 38.2124C19.9888 38.3251 19.9241 38.4453 19.8721 38.5711C19.8339 38.6672 19.8028 38.766 19.7791 38.8667C19.7154 39.1708 19.6983 39.4828 19.7284 39.792C19.7366 39.8974 19.7476 40.0027 19.7599 40.1081L19.7804 40.2669C19.7941 40.3723 19.8092 40.4777 19.8242 40.5831C19.8461 40.7419 19.8667 40.9006 19.8817 41.0567C19.8938 41.1671 19.8997 41.2782 19.8995 41.3893C19.8995 41.418 19.8995 41.4454 19.8995 41.4728C19.8947 41.5554 19.8823 41.6374 19.8626 41.7178C19.8518 41.762 19.838 41.8054 19.8215 41.8478C19.7722 41.9736 19.7073 42.0926 19.6285 42.2023C19.5219 42.3512 19.4062 42.4933 19.2822 42.628L19.1631 42.7649C19.1234 42.81 19.0851 42.8566 19.0454 42.9017C18.8889 43.0842 18.7457 43.2777 18.617 43.4807C18.5541 43.5829 18.4979 43.6889 18.4486 43.7983C18.4111 43.8811 18.3787 43.9661 18.3514 44.0528C18.3166 44.1691 18.2918 44.2882 18.2775 44.4087C18.2775 44.4388 18.2775 44.4689 18.2693 44.4991C18.2693 44.5579 18.2693 44.6181 18.2693 44.6784C18.2723 44.738 18.2787 44.7974 18.2884 44.8563C18.2981 44.9147 18.3118 44.9723 18.3295 45.0288C18.3467 45.086 18.3682 45.1418 18.3938 45.1957C18.3938 45.2108 18.4075 45.2259 18.4157 45.2409L18.4376 45.2861C18.4527 45.3162 18.4678 45.3449 18.4814 45.375C18.5021 45.4186 18.5173 45.4646 18.5266 45.5119C18.5266 45.527 18.5266 45.5434 18.5266 45.5598C18.5266 45.5763 18.5266 45.5954 18.5266 45.6118C18.5048 45.7493 18.4326 45.8738 18.324 45.9609C18.2967 45.9869 18.2693 46.0101 18.2405 46.0348L18.1967 46.0704L18.1078 46.1402L18.0229 46.2086C17.9483 46.2711 17.8792 46.3398 17.8162 46.4139C17.0455 46.3727 16.2729 46.4484 15.5249 46.6384C15.2591 46.7249 14.9828 46.7751 14.7036 46.7876C14.6366 46.7938 14.5691 46.7834 14.507 46.7574C14.445 46.7314 14.3903 46.6905 14.3477 46.6384C14.3003 46.5357 14.2873 46.4205 14.3108 46.3099C14.3477 45.8516 14.2725 45.3913 14.0918 44.9685C14.0481 44.8448 13.9725 44.7348 13.8727 44.6496C13.8219 44.6083 13.7593 44.5841 13.6938 44.5807C13.6284 44.5773 13.5635 44.5947 13.5086 44.6305C13.7402 45.3793 13.7068 46.185 13.4142 46.9121C13.2639 47.2549 13.0878 47.5857 12.8872 47.9017C12.5751 48.4342 12.3999 49.0433 12.1221 49.5949C12.4328 50.6474 12.363 51.7712 12.5327 52.8579C12.6846 53.8694 13.0378 54.8385 13.3923 55.798C13.6661 56.522 13.9508 57.2776 14.5311 57.7868C14.7182 57.9754 14.9705 58.0852 15.2361 58.0934C15.4326 58.069 15.6204 57.9977 15.7836 57.8853C15.9529 57.7931 16.1089 57.6784 16.2476 57.5445C16.2989 57.4883 16.3447 57.4273 16.3845 57.3625C16.4015 57.4541 16.4364 57.5416 16.4871 57.6198C16.8211 56.8998 17.1879 56.1963 17.5822 55.5078C17.6996 55.4453 17.8097 55.37 17.9107 55.2833C17.9107 55.308 17.923 55.3326 17.9298 55.3573C17.912 55.423 17.8956 55.4941 17.8778 55.5557C17.86 55.6173 17.8395 55.683 17.8203 55.7446C17.8012 55.8062 17.7916 55.8363 17.7765 55.8815C17.7615 55.9266 17.7396 55.991 17.719 56.0457C17.6985 56.1005 17.6752 56.1648 17.652 56.2237C17.6287 56.2825 17.6205 56.3085 17.6027 56.3496C17.5603 56.4536 17.5165 56.5549 17.4658 56.6562C17.5039 56.6747 17.5433 56.6907 17.5835 56.7041L17.6095 56.7123C17.645 56.7235 17.6811 56.7327 17.7177 56.7397H17.7574C17.7841 56.7438 17.8111 56.7466 17.8381 56.7479H17.8682H17.9572C18.0552 56.7436 18.1522 56.7271 18.246 56.6986L18.2994 56.9176C18.4359 57.4097 18.524 57.914 18.5622 58.4232C18.5882 58.9981 18.4883 59.5825 18.5992 60.1478C18.6553 60.4421 18.7689 60.7241 18.81 61.0197C18.8364 61.2982 18.8314 61.5787 18.7949 61.856C18.731 62.5276 18.6671 63.1997 18.6033 63.8722C18.5974 64.119 18.5386 64.3618 18.4308 64.5839C18.3364 64.7482 18.1831 64.9357 18.2789 65.0986C18.4366 65.0566 18.5972 65.0259 18.7593 65.0069C18.7005 65.2204 18.6471 65.4353 18.5964 65.6515C18.547 65.8123 18.5339 65.982 18.5581 66.1484C18.5923 66.3044 18.695 66.4454 18.7059 66.6042C18.7306 66.8505 18.5595 67.0682 18.465 67.2967C18.2241 67.8798 18.4801 68.5368 18.7388 69.1144L19.4943 70.8281L20.1144 72.2338C20.2978 72.6444 20.4826 73.0687 20.6619 73.4903C21.47 75.4098 22.1299 77.3884 22.6357 79.4087C22.6526 79.5004 22.6875 79.5879 22.7384 79.666C22.8424 79.8029 23.0327 79.8467 23.1873 79.9316C23.6514 80.1875 23.7047 80.9513 23.2804 81.2688C23.3666 82.2981 22.596 83.2932 22.1991 84.2458C21.2847 86.4358 21.4503 88.9078 21.1369 91.262L21.4914 91.0553C21.5334 91.0742 21.5722 91.0996 21.6064 91.1306C21.5982 91.1744 21.5886 91.22 21.5776 91.2675C21.5297 91.4676 21.4532 91.6599 21.3504 91.8382C21.1437 92.1927 20.8275 92.5089 20.7796 92.9168C20.7509 93.1632 20.8262 93.4095 20.8248 93.6573C20.8248 93.6805 20.8248 93.7024 20.8248 93.7257C20.7933 93.6956 20.7454 93.6983 20.6742 93.7545C20.5628 93.8715 20.4856 94.0168 20.4511 94.1747C20.3895 94.3512 20.3403 94.5305 20.291 94.7098L20.1076 95.3422C20.0139 95.7233 19.8899 96.0964 19.7366 96.4577C19.6056 96.6996 19.4957 96.9524 19.4081 97.2133C19.3593 97.4258 19.3404 97.6442 19.352 97.862C19.3484 98.0708 19.3784 98.2788 19.441 98.478C19.5231 98.6742 19.6453 98.8511 19.7997 98.9975C19.954 99.1438 20.1372 99.2564 20.3375 99.328C20.7385 99.4689 21.1584 99.5482 21.5831 99.5634C21.692 99.5774 21.8024 99.5741 21.9103 99.5538C22.0258 99.5206 22.1333 99.4642 22.2264 99.3882C22.8041 98.9639 23.1025 98.1837 23.1545 97.4719C23.1399 97.325 23.1138 97.1795 23.0765 97.0367C23.1121 96.2579 22.9984 95.475 23.0573 94.6989C23.0696 94.7878 23.0819 94.8755 23.0956 94.963L23.2325 95.8349C23.2245 95.8039 23.2084 95.7756 23.186 95.7528C23.0847 96.0757 23.0668 96.419 23.134 96.7506C23.2022 97.0807 23.2984 97.4045 23.4214 97.7183L23.6076 98.2384C23.6524 98.3953 23.7278 98.5418 23.8293 98.6696C23.9922 98.8489 24.2399 98.916 24.4781 98.9735C24.99 99.123 25.5171 99.2148 26.0495 99.2472C26.1206 99.2555 26.1927 99.2422 26.2562 99.2089C26.2887 99.1848 26.3198 99.1587 26.3492 99.1309C26.3965 99.097 26.4469 99.0676 26.4998 99.0433C26.7285 98.9229 26.9013 98.7182 26.9816 98.4725C27.0201 98.3503 27.0321 98.2212 27.0168 98.094C27.0014 97.9668 26.9591 97.8443 26.8926 97.7347C26.8304 97.6423 26.7593 97.5561 26.6805 97.4774L25.7442 96.4851C25.6011 96.3151 25.4484 96.1533 25.2871 96.0006C25.2678 95.9808 25.244 95.966 25.2178 95.9574C25.1916 95.9489 25.1637 95.9468 25.1365 95.9513C24.8819 95.3162 24.9147 94.5743 24.9585 93.8776C24.9722 93.6696 25.0858 93.2384 25.131 92.8839C25.3116 92.823 25.4798 92.7303 25.6279 92.6102C25.7706 92.506 25.8719 92.3547 25.914 92.1831C26.3862 89.7714 27.1459 87.4336 27.8631 85.0835C27.9343 84.8522 28 84.6195 28.0725 84.3882C28.1026 84.2896 28.13 84.1897 28.1588 84.0898C28.1875 83.9899 28.2067 83.9283 28.2299 83.8475C28.2683 83.7107 28.3066 83.5738 28.3436 83.4369C28.3545 83.4 28.3641 83.363 28.375 83.326C28.3744 83.3188 28.3744 83.3114 28.375 83.3041C28.4202 83.1358 28.464 82.9674 28.5119 82.7991C28.5283 82.7334 28.5461 82.6704 28.5626 82.6047C28.6159 82.3912 28.6693 82.1749 28.72 81.96C28.7283 81.9304 28.7347 81.9002 28.7391 81.8697C28.7576 81.7938 28.7524 81.714 28.7241 81.6411C28.7104 81.6129 28.6924 81.5871 28.6707 81.5645C28.6556 81.5467 28.6392 81.5289 28.6228 81.5125C28.6064 81.496 28.5872 81.4741 28.5708 81.4536C28.5276 81.4006 28.495 81.3397 28.475 81.2743C28.475 81.2086 28.475 81.1374 28.475 81.0772C28.475 81.017 28.4667 80.9403 28.4626 80.8692C28.4773 80.7767 28.4979 80.6852 28.5242 80.5954C28.5407 80.542 28.5585 80.4887 28.5749 80.4353C28.5913 80.3819 28.6159 80.2984 28.6378 80.2368C28.7197 80.1434 28.7641 80.0229 28.7624 79.8987C28.8473 79.687 28.9408 79.4794 29.043 79.2759C29.1691 79.0697 29.2541 78.841 29.2935 78.6025C29.2929 78.387 29.2662 78.1724 29.2141 77.9633C29.0772 77.0737 29.4879 76.2072 29.7904 75.3627C30.0148 74.7398 30.1851 74.0987 30.2995 73.4465C30.3885 72.9469 30.4501 72.4227 30.717 71.9902C30.8051 71.8687 30.8803 71.7384 30.9415 71.6014C30.9829 71.4582 31.0032 71.3098 31.0017 71.1607C31.0354 70.5563 31.1816 69.9635 31.4329 69.4128C31.4886 69.3061 31.5265 69.191 31.5451 69.072C31.5459 69.0643 31.5459 69.0565 31.5451 69.0487V69.0159L31.615 69.0049C31.734 68.2508 31.8545 67.4104 31.7724 66.6507C31.6655 65.7708 31.237 64.9615 30.5692 64.3786H30.5829C30.8183 64.2595 30.9237 63.968 30.9278 63.7107C30.9284 63.5157 30.8851 63.3231 30.8013 63.147C30.7174 62.971 30.595 62.8161 30.4433 62.6937C30.3754 62.6515 30.319 62.5932 30.279 62.524C30.2563 62.4529 30.2493 62.3777 30.2585 62.3036C30.2596 62.0801 30.1942 61.8614 30.0706 61.6751C29.947 61.4889 29.7709 61.3437 29.5645 61.2579C29.5217 61.246 29.4826 61.2234 29.4509 61.1922C29.4157 61.1318 29.405 61.0604 29.4208 60.9923C29.4335 60.7701 29.3852 60.5486 29.2813 60.3518C29.1773 60.155 29.0216 59.9903 28.8308 59.8755C28.8856 59.5825 28.9403 59.2759 28.8568 58.9885C28.7733 58.7011 28.5037 58.441 28.208 58.4821C28.4489 57.8251 28.1068 57.0942 28.1971 56.4002C28.2368 56.1018 28.3559 55.8158 28.3709 55.516C28.3846 55.2423 28.3175 54.9494 28.4503 54.7112C28.5831 54.473 28.8965 54.2869 28.8158 54.0268C28.7816 53.916 28.6789 53.8393 28.631 53.7312C28.5831 53.6231 28.7747 53.4574 28.8733 53.5177C28.9198 53.4821 28.9663 53.4451 29.0101 53.4068C29.0244 53.546 29.0519 53.6835 29.0923 53.8174C29.1593 54.0419 29.262 54.2527 29.3318 54.4758C29.4386 54.8166 29.4687 55.1862 29.6412 55.4982C29.9149 55.9978 30.4939 56.2456 30.8854 56.6603C31.1153 56.9026 31.281 57.2078 31.5178 57.4377C31.6976 57.6057 31.8949 57.7539 32.1063 57.8798L33.3711 58.7011C33.5023 58.7963 33.6485 58.869 33.8036 58.916C33.9021 58.9347 34.0033 58.9332 34.1011 58.9116C34.199 58.8899 34.2914 58.8486 34.3727 58.7901C34.454 58.7315 34.5226 58.657 34.5742 58.5711C34.6258 58.4853 34.6593 58.3897 34.6728 58.2905C34.5565 58.2493 34.4505 58.1835 34.3621 58.0975C34.3799 58.0975 34.3977 58.0975 34.4155 58.0893C34.7159 58.0107 34.9939 57.8631 35.2272 57.6581C36.1278 56.9409 36.7753 55.9622 37.4077 55C38.0701 53.9913 41.258 51.3222 41.258 51.3222V50.2409C41.6637 50.0058 42.0235 49.6993 42.3202 49.3362C42.4802 49.1425 42.5737 48.9026 42.5871 48.6518C42.5932 48.5236 42.5587 48.3967 42.4884 48.2893C42.4181 48.1819 42.3156 48.0994 42.1957 48.0537ZM15.6823 50.6474C15.6211 51.0407 15.5459 51.4313 15.4564 51.8191C15.3579 52.2676 15.2318 52.7097 15.0786 53.1426L15.0294 53.2795C14.9842 53.1946 14.939 53.1112 14.8925 53.0249C14.7898 52.81 14.7063 52.5869 14.6187 52.3638L14.0904 50.9403C14.0219 50.7556 13.9535 50.542 14.0562 50.3723C14.1314 50.2683 14.2364 50.1896 14.3573 50.1465C14.7288 49.9761 15.1168 49.8445 15.5153 49.7536C15.6413 49.7284 15.7656 49.6954 15.8876 49.6551C15.7894 49.979 15.7207 50.3111 15.6823 50.6474ZM16.2668 48.8681C16.2491 48.8365 16.2399 48.8009 16.2399 48.7647C16.2399 48.7285 16.2491 48.693 16.2668 48.6614C16.3063 48.6215 16.3527 48.5891 16.4036 48.5656L16.4433 48.5382C16.3886 48.6518 16.327 48.7613 16.2668 48.8722V48.8681ZM17.3618 47.32C17.2064 47.4489 17.0651 47.5939 16.9402 47.7525C16.8062 47.9296 16.6854 48.1162 16.5788 48.311C16.595 48.2353 16.5894 48.1566 16.5628 48.084C16.5361 48.0113 16.4895 47.9477 16.4283 47.9004C16.3798 47.8738 16.334 47.8426 16.2914 47.8073C16.2457 47.7463 16.226 47.6696 16.2368 47.5942C16.2476 47.5187 16.2879 47.4506 16.3489 47.4049C16.4748 47.3185 16.6221 47.2683 16.7746 47.2598L17.4056 47.1667C17.3864 47.2201 17.3741 47.2721 17.3604 47.3241L17.3618 47.32ZM23.2695 93.1248C23.2806 92.9356 23.2682 92.7457 23.2325 92.5595C23.3105 92.5595 23.3885 92.5595 23.4652 92.5595C23.4009 92.7416 23.3352 92.9346 23.2695 93.1248Z" fill="url(#paint11_linear)"/>
<path d="M22.626 37.3543C21.531 37.5308 20.3128 37.9524 19.8884 38.979C19.5723 39.755 19.8173 40.6283 19.898 41.4618C19.9287 41.6819 19.9208 41.9056 19.8748 42.1229C19.7844 42.4747 19.5353 42.7594 19.2944 43.0318C18.9597 43.3776 18.6787 43.7716 18.4608 44.2007C18.2637 44.6387 18.2007 45.1588 18.4047 45.5968C18.4741 45.7094 18.5206 45.8345 18.5416 45.965C18.5552 46.2497 18.2568 46.4304 18.0378 46.6124C17.2166 47.2968 17.2508 48.5286 17.2439 49.6004C17.2313 51.7857 16.7462 53.9424 15.8218 55.9226C16.1682 56.098 16.5595 56.165 16.9446 56.1147C17.3296 56.0644 17.6906 55.8992 17.9804 55.6406C17.8665 56.1272 17.7023 56.6006 17.4903 57.0532C18.1857 57.3899 19.0247 56.8369 19.3738 56.147C19.7228 55.4572 19.7639 54.6551 20.0116 53.9228C20.2594 53.1906 20.696 52.5541 20.889 51.8164C20.9506 51.5727 20.9889 51.3127 21.1381 51.1101C21.2639 50.9635 21.4116 50.8375 21.5762 50.7364C22.2981 50.2153 22.8394 49.4817 23.1243 48.6381C23.9756 48.8257 24.8448 49.0145 25.7126 48.9352C26.5804 48.8558 27.4674 48.4629 27.926 47.7211C28.1285 47.394 28.238 47.0176 28.4256 46.6808C28.6555 46.2702 28.9936 45.9308 29.2468 45.538C29.8573 44.6031 29.9696 43.4027 29.7218 42.3132C29.4741 41.2237 28.9005 40.2382 28.2161 39.3554C26.9048 37.6526 24.7011 37.0217 22.626 37.3543Z" fill="#303D5C"/>
<path d="M15.7149 51.0443C15.6533 51.4358 15.578 51.8272 15.4904 52.2146C15.3911 52.6625 15.2649 53.104 15.1126 53.5368C15.0231 53.7263 14.9822 53.9352 14.9936 54.1445C15.0206 54.2727 15.0702 54.395 15.14 54.5059C15.6396 55.3942 16.3158 56.2524 16.3719 57.2707C16.3856 57.5239 16.3719 57.799 16.5088 58.0085C16.8948 57.1772 17.321 56.3669 17.7873 55.5776C18.2745 54.7563 18.8166 53.9159 18.9562 52.966C19.0119 52.5202 19.0059 52.0688 18.9384 51.6247C18.8741 51.1251 18.7618 50.6132 18.458 50.2135C18.1267 49.781 17.2261 49.1281 16.6334 49.2636C15.9449 49.421 15.8025 50.4872 15.7149 51.0443Z" fill="#FF610F"/>
<path d="M33.3571 55.8322C34.0114 55.5653 34.6794 55.2847 35.1982 54.8029C35.515 54.4887 35.796 54.1403 36.0359 53.764L37.5757 51.5426C37.9398 51.0142 38.3163 50.4599 38.397 49.8234C39.2988 48.8714 39.8421 47.6358 39.9342 46.3277C39.9451 46.1977 39.9889 46.0266 40.119 46.0225C40.1765 46.0268 40.2303 46.0527 40.2695 46.095C40.3701 46.1876 40.4474 46.3028 40.495 46.431C40.5426 46.5592 40.5591 46.6969 40.5433 46.8328C40.7678 46.8218 41.0114 46.8163 41.1948 46.9477C41.3782 47.0791 41.4275 47.4049 41.2304 47.513C41.2964 47.533 41.3527 47.5766 41.3888 47.6353C41.4249 47.6941 41.4382 47.764 41.4261 47.8319C41.6616 47.7854 41.9203 47.7471 42.1283 47.8648C42.3364 47.9825 42.4158 48.3274 42.2146 48.4561C42.3319 48.5014 42.4323 48.5819 42.5021 48.6865C42.572 48.7912 42.6078 48.9148 42.6047 49.0405C42.5921 49.2915 42.4985 49.5317 42.3378 49.7249C41.7464 50.5188 40.7034 50.839 40.0177 51.5535C39.7923 51.8033 39.5903 52.0732 39.414 52.3597L37.4279 55.3819C36.7969 56.34 36.1495 57.3214 35.2488 58.0359C35.0155 58.2408 34.7376 58.3885 34.4371 58.467C34.2867 58.505 34.1289 58.5031 33.9794 58.4616C33.8299 58.4201 33.6937 58.3403 33.5844 58.2302C33.3859 58.0044 33.3558 57.6827 33.3366 57.3802C33.3038 56.8711 33.3914 56.3455 33.3571 55.8322Z" fill="#EE8E9E"/>
<path d="M26.7063 97.806C26.7855 97.8844 26.8566 97.9706 26.9184 98.0633C26.9849 98.1726 27.0272 98.2949 27.0425 98.4219C27.0579 98.5489 27.0459 98.6777 27.0074 98.7997C26.9281 99.0451 26.7555 99.2496 26.527 99.3691C26.4735 99.3931 26.4226 99.4225 26.375 99.4567C26.3459 99.4853 26.3148 99.5118 26.282 99.5361C26.218 99.5681 26.1464 99.5813 26.0753 99.5744C25.5435 99.5407 25.0171 99.4489 24.5053 99.3006C24.2698 99.2418 24.0207 99.1747 23.8565 98.9968C23.7549 98.869 23.6796 98.7225 23.6347 98.5656L23.4486 98.0469C23.3263 97.7333 23.2306 97.4101 23.1625 97.0806C23.0946 96.7494 23.1125 96.4064 23.2145 96.0841C23.2607 96.1419 23.2849 96.2141 23.2829 96.288C23.3377 96.6373 23.4747 96.9685 23.6826 97.2544C23.7261 97.326 23.7785 97.3918 23.8387 97.4501C23.9748 97.5545 24.1356 97.622 24.3054 97.6458C24.6324 97.7169 24.9649 97.7595 25.2992 97.7731C25.3454 97.7794 25.3926 97.7738 25.436 97.7567C25.4897 97.7269 25.5303 97.6781 25.5497 97.6198C25.5975 97.4871 25.5975 97.3419 25.5497 97.2092C25.4593 96.956 25.2116 96.7904 25.0938 96.5495C25.0049 96.3715 25.1267 96.1758 25.3074 96.3264C25.4696 96.4788 25.6227 96.6406 25.7659 96.8109L26.7063 97.806Z" fill="#303D5C"/>
<path d="M24.9857 94.2102C24.9323 95.0465 24.8954 95.9499 25.3525 96.6521C25.5182 96.9039 25.7385 97.1161 25.9261 97.3529C26.0336 97.4713 26.1049 97.6181 26.1314 97.7758C26.1574 98.0824 25.8699 98.3452 25.5674 98.4027C25.2649 98.4602 24.9556 98.3644 24.6627 98.2658C24.3855 98.1968 24.1246 98.0741 23.8948 97.9045C23.4965 97.5677 23.3911 97.0066 23.3117 96.4919L23.1255 95.2956C22.9845 94.6909 23.0441 94.0568 23.2953 93.4889L23.6019 92.591C23.6219 92.5037 23.67 92.4254 23.7387 92.3679C23.8101 92.3286 23.8921 92.3133 23.9728 92.3241C24.2657 92.3392 25.0062 92.4459 25.1486 92.7566C25.269 93.0263 25.0062 93.8886 24.9857 94.2102Z" fill="#EE8E9E"/>
<path opacity="0.05" d="M24.9857 94.2102C24.9323 95.0465 24.8954 95.9499 25.3525 96.6521C25.5182 96.9039 25.7385 97.1161 25.9261 97.3529C26.0336 97.4713 26.1049 97.6181 26.1314 97.7758C26.1574 98.0824 25.8699 98.3452 25.5674 98.4027C25.2649 98.4602 24.9556 98.3644 24.6627 98.2658C24.3855 98.1968 24.1246 98.0741 23.8948 97.9045C23.4965 97.5677 23.3911 97.0066 23.3117 96.4919L23.1255 95.2956C22.9845 94.6909 23.0441 94.0568 23.2953 93.4889L23.6019 92.591C23.6219 92.5037 23.67 92.4254 23.7387 92.3679C23.8101 92.3286 23.8921 92.3133 23.9728 92.3241C24.2657 92.3392 25.0062 92.4459 25.1486 92.7566C25.269 93.0263 25.0062 93.8886 24.9857 94.2102Z" fill="black"/>
<path d="M31.5657 69.421C31.5663 69.4288 31.5663 69.4366 31.5657 69.4443C31.5483 69.5627 31.5103 69.6771 31.4534 69.7824C31.2022 70.3317 31.0555 70.9231 31.0209 71.5262C31.0224 71.6752 31.0021 71.8237 30.9607 71.9669C30.8993 72.1033 30.824 72.2331 30.7362 72.3542C30.4693 72.7881 30.4077 73.3124 30.3187 73.8092C30.204 74.4586 30.0336 75.097 29.8095 75.7172C29.5043 76.5631 29.0936 77.4281 29.2332 78.3178C29.2854 78.5269 29.312 78.7415 29.3126 78.957C29.2736 79.1952 29.1885 79.4235 29.0621 79.6291C28.9599 79.8317 28.8687 80.0392 28.7884 80.2519C28.6994 80.4791 28.62 80.7118 28.5502 80.9472C28.4681 81.2332 28.4133 81.5727 28.6022 81.8026C28.6609 81.8589 28.7128 81.9218 28.7569 81.9902C28.7925 82.0949 28.7925 82.2084 28.7569 82.3132C28.6483 82.7694 28.5324 83.2257 28.4092 83.6819C28.3134 84.0378 28.2121 84.3909 28.1081 84.7441C27.3388 87.3269 26.4656 89.8837 25.9509 92.5294C25.877 92.9099 25.3883 93.1823 25.0105 93.2658C24.8203 93.3065 24.6231 93.3015 24.4352 93.2513C24.2472 93.2011 24.0738 93.1071 23.9292 92.977C23.9032 92.9537 23.8785 92.9277 23.8553 92.9031C23.4583 92.4761 23.3995 91.8204 23.4296 91.2291C23.5665 88.5067 24.9353 86.0142 25.5868 83.3685C25.8224 82.4118 25.9645 81.4345 26.0111 80.4503C26.1631 77.1654 26.2246 73.6915 25.2952 70.5338C25.1022 69.8768 24.8737 69.135 25.2213 68.5464C25.4403 68.1741 25.8469 67.9537 26.2493 67.795C27.07 67.4751 27.9463 67.3225 28.8268 67.346C29.7073 67.3695 30.5743 67.5687 31.3768 67.9318C31.3781 67.9977 31.3754 68.0635 31.3686 68.1289C31.3337 68.435 31.3693 68.7449 31.4726 69.035C31.5257 69.1573 31.5572 69.288 31.5657 69.421Z" fill="#303D5C"/>
<path d="M20.3112 95.052L20.1374 95.6844C20.0448 96.0648 19.9212 96.4369 19.7678 96.7971C19.6368 97.0391 19.5269 97.2919 19.4393 97.5527C19.3905 97.7653 19.3716 97.9836 19.3832 98.2015C19.3796 98.4098 19.4096 98.6173 19.4722 98.816C19.5541 99.012 19.676 99.1887 19.8302 99.3348C19.9843 99.4809 20.1673 99.5933 20.3673 99.6646C20.7682 99.8056 21.1882 99.8846 21.6129 99.8987C21.7217 99.9138 21.8322 99.911 21.9401 99.8905C22.0556 99.8572 22.1632 99.8009 22.2563 99.7249C22.8339 99.3019 23.1309 98.5218 23.1829 97.8086C23.168 97.6423 23.1354 97.4781 23.0857 97.3186C23.0406 97.2584 22.6039 97.5048 22.7915 97.7115C23.0652 98.0153 22.259 97.8579 21.8484 97.8319C21.668 97.8164 21.4891 97.7871 21.3132 97.7443L20.6479 97.6074C20.4303 97.5609 20.1798 97.4856 20.1004 97.2776C20.021 97.0695 20.1908 96.8204 20.3222 96.6178C20.6698 96.0799 20.7602 95.4216 20.8409 94.7865C20.856 94.6619 21.012 93.853 20.6904 94.1021C20.58 94.2198 20.5029 94.3649 20.4673 94.5223C20.4084 94.6934 20.3591 94.8727 20.3112 95.052Z" fill="#303D5C"/>
<path opacity="0.05" d="M28.5952 81.804C28.4063 81.5741 28.4583 81.2346 28.5445 80.9486C28.5747 80.8418 28.6089 80.7364 28.6445 80.631L26.0328 79.7468C26.0232 79.9822 26.0123 80.2149 26.0013 80.4476C25.9558 81.4322 25.8142 82.41 25.5784 83.3671C24.9255 86.0115 23.5553 88.504 23.4212 91.225C23.3897 91.8519 23.4568 92.5527 23.9208 92.9743C24.0651 93.1044 24.2383 93.1985 24.426 93.249C24.6136 93.2994 24.8106 93.3047 25.0008 93.2645C25.3799 93.181 25.8672 92.9072 25.9425 92.5267C26.4599 89.8809 27.3291 87.3255 28.0997 84.74C28.3397 83.9379 28.556 83.1294 28.7485 82.3146C28.7841 82.2103 28.7841 82.0972 28.7485 81.9929C28.7056 81.9237 28.6541 81.8602 28.5952 81.804Z" fill="black"/>
<path d="M21.3791 92.1831C21.1724 92.539 20.8576 92.8538 20.8097 93.2617C20.7809 93.5067 20.8562 93.7531 20.8548 94.0008C20.8447 94.2058 20.8084 94.4086 20.7467 94.6044C20.4921 95.5233 20.1992 96.4294 19.8679 97.3227C19.8135 97.4379 19.7894 97.5651 19.7981 97.6923C19.831 97.9017 20.0349 98.0399 20.2293 98.1234C20.8521 98.389 21.5529 98.3712 22.2291 98.3438C22.4257 98.3518 22.6207 98.3044 22.7917 98.2069C23.0339 98.0413 23.0942 97.7142 23.1092 97.4213C23.1558 96.5726 23.012 95.7199 23.1092 94.8768C23.1434 94.5688 23.2078 94.2663 23.2557 93.9611C23.3227 93.5368 23.357 93.0906 23.2173 92.6841C23.1017 92.3923 22.94 92.121 22.7383 91.8806C22.5603 91.6203 22.3351 91.3956 22.0744 91.2181C21.995 91.1716 21.7692 91.0265 21.6884 91.1169C21.6473 91.1634 21.6651 91.288 21.6597 91.3454C21.649 91.4338 21.6335 91.5216 21.6131 91.6082C21.5631 91.8101 21.4843 92.0037 21.3791 92.1831Z" fill="#EE8E9E"/>
<path opacity="0.05" d="M26.3969 70.4804C26.2751 70.646 26.2997 70.876 26.349 71.0758C26.4353 71.4371 26.5803 71.7834 26.6981 72.1352C26.8907 72.7668 27.0407 73.4107 27.147 74.0624C27.2565 74.6509 27.4892 75.3066 27.3948 75.8992C28.1087 77.258 28.5781 78.7318 28.7814 80.2532C28.8347 80.6433 27.9683 81.147 27.9847 81.5398C28.0176 82.3227 28.6417 82.3857 28.1818 83.0098C28.1586 83.0413 28.3543 83.7407 28.3283 83.7708C28.1408 83.9967 27.9026 84.1815 27.7014 84.3881C27.4419 84.6821 27.2198 85.0072 27.0403 85.3558C25.8494 87.5075 24.1275 89.9466 24.6586 92.3487C24.6694 92.4352 24.6534 92.5229 24.6128 92.6C24.5721 92.6771 24.5088 92.7399 24.4314 92.7799C24.2741 92.8555 24.1021 92.8952 23.9276 92.8962H23.8455C23.4486 92.4692 23.3897 91.8136 23.4198 91.2223C23.5567 88.4998 24.9255 86.0074 25.577 83.3616C25.8127 82.4049 25.9548 81.4276 26.0014 80.4434C26.1533 77.1585 26.2149 73.6846 25.2855 70.5269C25.0925 69.8699 24.8639 69.1281 25.2116 68.5395C25.4306 68.1672 25.8371 67.9468 26.2395 67.7881C27.0602 67.4683 27.9366 67.3156 28.8171 67.3391C29.6976 67.3626 30.5645 67.5618 31.367 67.9249C31.3683 67.9908 31.3656 68.0566 31.3588 68.122C31.3239 68.4281 31.3595 68.738 31.4628 69.0282C31.5202 69.1524 31.555 69.2859 31.5655 69.4223C31.5655 69.4223 31.612 68.8926 31.6106 68.9009C30.5498 69.0528 29.4302 69.7467 28.3598 69.9041C27.8048 69.9634 27.2581 70.0836 26.7295 70.2628C26.6008 70.3033 26.4857 70.3786 26.3969 70.4804Z" fill="black"/>
<path d="M19.0071 64.6524C18.8638 65.1086 18.7374 65.5694 18.6279 66.0348C18.5792 66.1956 18.5661 66.3652 18.5896 66.5316C18.6238 66.6877 18.7265 66.8273 18.7374 66.9861C18.762 67.2324 18.591 67.4501 18.4965 67.6786C18.2556 68.2603 18.5129 68.9173 18.7703 69.4936L19.5258 71.2045L20.1473 72.6088C20.332 73.0263 20.5155 73.4438 20.6948 73.864C21.5024 75.7812 22.1618 77.7575 22.6672 79.7755C22.6842 79.867 22.7186 79.9544 22.7685 80.0329C22.8739 80.1697 23.0641 80.2135 23.2174 80.2984C23.6828 80.553 23.7362 81.3167 23.3105 81.6343C23.3981 82.6622 22.6261 83.6546 22.2306 84.6072C21.3162 86.7972 21.4818 89.2609 21.1684 91.6151L21.5229 91.4071C21.8637 91.5631 21.8514 92.0463 22.0348 92.3734C22.3086 92.8648 22.982 92.9332 23.5405 92.8963C23.7145 92.8955 23.8862 92.8557 24.0428 92.7799C24.1204 92.7401 24.1839 92.6774 24.2245 92.6002C24.2652 92.5231 24.2811 92.4353 24.27 92.3488C23.7403 89.9466 25.4609 87.5075 26.6531 85.3559C26.8322 85.0073 27.0538 84.6822 27.3129 84.3882C27.5154 84.1747 27.7522 83.9954 27.9411 83.7709C28.4667 83.1399 28.5338 82.2502 28.4982 81.429C28.4148 79.4978 27.9053 77.6091 27.0063 75.8979C27.1021 75.3066 26.8694 74.651 26.7599 74.0624C26.6531 73.4109 26.5018 72.7674 26.3068 72.1366C26.1891 71.7821 26.0454 71.4372 25.9578 71.0758C25.9099 70.876 25.8838 70.6461 26.0057 70.4804C26.0957 70.3782 26.2122 70.3029 26.3424 70.2628C26.871 70.0837 27.4177 69.9634 27.9726 69.9042L31.6451 69.3772C31.7628 68.6231 31.8832 67.7827 31.8011 67.0244C31.7129 66.3217 31.4203 65.6604 30.9597 65.1224C30.4991 64.5845 29.8907 64.1935 29.21 63.9981C29.0499 63.9557 28.8623 63.9283 28.7309 64.0296C25.4903 63.3934 22.1401 63.608 19.0071 64.6524Z" fill="#303D5C"/>
<path d="M22.3371 44.818C22.3906 45.1765 22.3348 45.5428 22.1769 45.8692C22.0703 46.0474 21.931 46.2039 21.7663 46.3304C21.4112 46.6159 20.9984 46.8209 20.5563 46.9313C20.2962 46.997 20.0088 47.0408 19.8322 47.2475C19.5749 47.5582 19.7473 48.029 19.9691 48.3685C20.3496 48.9598 20.878 49.4949 21.5555 49.6797C22.103 49.8276 22.6738 49.7372 23.2268 49.833C23.6278 49.9028 24.0056 50.0684 24.4012 50.1629C24.9641 50.2917 25.5502 50.2778 26.1065 50.1227C26.6627 49.9676 27.1714 49.6761 27.5864 49.2746C26.9978 48.8229 26.3873 48.3425 26.0807 47.6663C25.8649 47.1824 25.8243 46.6385 25.9657 46.1279C26.1026 45.6269 26.4243 45.1396 26.3257 44.6222C26.2272 44.1049 25.7235 43.7586 25.2307 43.5861C24.7783 43.4487 24.3134 43.3565 23.8427 43.311C23.584 43.2754 21.9415 42.9127 21.8388 43.092C21.7814 43.1933 22.1222 43.7928 22.1646 43.9256C22.2647 44.2132 22.3228 44.5138 22.3371 44.818Z" fill="#EE8E9E"/>
<path d="M24.4083 46.0169C26.2483 46.0169 27.7399 44.5254 27.7399 42.6854C27.7399 40.8455 26.2483 39.3539 24.4083 39.3539C22.5683 39.3539 21.0767 40.8455 21.0767 42.6854C21.0767 44.5254 22.5683 46.0169 24.4083 46.0169Z" fill="#EE8E9E"/>
<path d="M22.6479 48.1919L24.9077 48.5724C25.4632 48.6854 26.0286 48.7423 26.5955 48.7421C26.9049 48.7114 27.2167 48.7114 27.5262 48.7421C27.7398 48.7777 27.9437 48.8585 28.1572 48.8859C28.4214 48.9187 28.6897 48.8681 28.9539 48.9023C29.4439 48.9652 29.8477 49.3047 30.22 49.6291C30.6566 50.0096 31.1261 50.4503 31.1604 51.032C31.1665 51.0981 31.1571 51.1646 31.133 51.2264C31.0901 51.2962 31.0327 51.356 30.9646 51.4016C30.554 51.7424 30.3172 52.2502 30.0215 52.6992C29.7171 53.1624 29.3378 53.5717 28.8991 53.9105C28.8006 53.8475 28.613 54.0132 28.6555 54.1227C28.6979 54.2322 28.806 54.3074 28.8416 54.4183C28.9224 54.6743 28.6062 54.8631 28.4748 55.1027C28.3434 55.3422 28.4105 55.6337 28.3968 55.9061C28.3804 56.2059 28.2599 56.4919 28.2229 56.789C28.1312 57.4829 28.4748 58.2138 28.2325 58.8694C28.5295 58.8325 28.7978 59.0884 28.8813 59.3745C28.9648 59.6606 28.9114 59.9685 28.8553 60.2614C29.0461 60.3756 29.202 60.5398 29.3062 60.7361C29.4104 60.9325 29.459 61.1536 29.4466 61.3756C29.435 61.4018 29.4294 61.4303 29.4302 61.4589C29.4311 61.4876 29.4383 61.5157 29.4514 61.5412C29.4646 61.5666 29.4833 61.5889 29.5061 61.6062C29.529 61.6235 29.5554 61.6354 29.5835 61.6411C29.7896 61.727 29.9655 61.8721 30.089 62.058C30.2125 62.2439 30.2781 62.4623 30.2775 62.6855C30.2683 62.76 30.2753 62.8356 30.298 62.9072C30.3379 62.9757 30.3938 63.0335 30.4609 63.0756C30.6127 63.1976 30.7351 63.3523 30.819 63.5281C30.9029 63.7039 30.9461 63.8964 30.9455 64.0912C30.9455 64.3553 30.836 64.6387 30.6019 64.7578C30.1228 65.0014 29.6095 65.0958 29.0839 65.2094C28.5996 65.3239 28.1093 65.4112 27.6152 65.4709C27.1599 65.5081 26.7031 65.5223 26.2464 65.5133L23.2241 65.501C22.3741 65.501 21.5241 65.501 20.6768 65.4366C19.8857 65.3833 19.0767 65.2847 18.3102 65.4928C18.2144 65.3299 18.3677 65.1424 18.4621 64.9795C18.5704 64.7575 18.6292 64.5147 18.6346 64.2677L18.8262 62.2543C18.8627 61.9775 18.8677 61.6974 18.8413 61.4194C18.8002 61.1224 18.688 60.8418 18.6305 60.5475C18.521 59.9836 18.6209 59.4005 18.5949 58.8256C18.5558 58.3164 18.4673 57.8122 18.3307 57.32L17.7312 54.8563C17.6354 54.4607 17.5847 54.0008 17.4369 53.6244C16.9761 52.4382 16.4929 51.2647 15.9874 50.104C15.9691 50.0531 15.962 49.9989 15.9668 49.945C15.9715 49.8911 15.9879 49.8389 16.0147 49.792L16.5143 48.8968C16.648 48.6424 16.8008 48.3985 16.9715 48.1673C17.3935 47.6337 17.991 47.267 18.6579 47.1325C19.3256 47.0019 20.018 47.1044 20.6193 47.4227C20.852 47.5472 21.0683 47.6964 21.3037 47.8196C21.7075 48.0112 22.2003 48.222 22.6479 48.1919Z" fill="#FF610F"/>
<path d="M30.6661 50.386L31.4531 51.4358C31.5254 51.525 31.587 51.6224 31.6365 51.726C31.7542 51.9998 31.6899 52.3228 31.7529 52.6171C31.8019 52.8055 31.88 52.9851 31.9842 53.1495C32.2801 53.6697 32.6145 54.1671 32.9848 54.6373C33.1558 54.8762 33.3665 55.084 33.6076 55.2519C33.7284 55.3354 33.8657 55.3919 34.0102 55.4176C34.1547 55.4434 34.3031 55.4377 34.4453 55.4011C34.3264 55.4474 34.2288 55.5362 34.1715 55.6502C33.8718 56.2442 33.8499 56.9478 33.9772 57.5993C34.013 57.8229 34.0871 58.0387 34.1962 58.2371C34.3055 58.4374 34.4833 58.5914 34.6971 58.671C34.6837 58.7703 34.6501 58.8657 34.5985 58.9516C34.5469 59.0374 34.4783 59.1118 34.3969 59.1702C34.3156 59.2286 34.2232 59.2699 34.1253 59.2913C34.0275 59.3128 33.9263 59.3141 33.828 59.2952C33.673 59.2487 33.5272 59.176 33.3968 59.0803L32.132 58.259C31.9209 58.1326 31.7237 57.9844 31.5435 57.8169C31.3067 57.5815 31.1424 57.2831 30.9124 57.0408C30.521 56.6302 29.9461 56.3784 29.6696 55.8801C29.4958 55.5681 29.4656 55.1958 29.3589 54.8591C29.2891 54.636 29.1864 54.4252 29.1193 54.2007C28.9113 53.5081 29.0618 52.7485 29.378 52.0983C29.6942 51.4482 30.1979 50.939 30.6661 50.386Z" fill="#FF610F"/>
<path d="M27.7001 40.7856C27.3918 40.3074 26.9939 39.8933 26.5284 39.5661C25.9056 39.1021 25.1898 38.7161 24.4137 38.6723C24.0892 38.6558 23.7649 38.7085 23.4623 38.827C23.4473 37.8867 23.2146 37.2598 22.626 37.3542C21.531 37.5308 20.3128 37.9523 19.8884 38.9789C19.5723 39.755 19.8173 40.6282 19.898 41.4618C19.9287 41.6818 19.9208 41.9055 19.8748 42.1229C19.7844 42.4747 19.5353 42.7594 19.2944 43.0317C18.9597 43.3776 18.6787 43.7716 18.4608 44.2006C18.2637 44.6386 18.2007 45.1588 18.4047 45.5967C18.4741 45.7093 18.5206 45.8344 18.5416 45.9649C18.5552 46.2496 18.2568 46.4303 18.0378 46.6124C17.2166 47.2967 17.2508 48.5286 17.2439 49.6003C17.2313 51.7856 16.7462 53.9423 15.8218 55.9225C16.1682 56.098 16.5595 56.1649 16.9446 56.1146C17.3296 56.0643 17.6906 55.8991 17.9804 55.6405C17.8665 56.1271 17.7023 56.6005 17.4903 57.0531C18.1857 57.3898 19.0247 56.8368 19.3738 56.147C19.7228 55.4571 19.7639 54.6551 20.0116 53.9228C20.2594 53.1905 20.696 52.554 20.889 51.8163C20.9506 51.5727 20.9889 51.3126 21.1381 51.11C21.2639 50.9635 21.4116 50.8374 21.5762 50.7364C22.2934 50.2217 21.2367 46.3222 21.5173 45.4845C21.9279 45.5762 22.7013 43.5683 23.1379 41.5152C23.4425 41.6201 23.7673 41.6525 24.0865 41.6096C24.1975 41.5856 24.3114 41.5777 24.4246 41.5863C24.5297 41.6079 24.63 41.6488 24.7203 41.7068C25.0434 41.9051 25.381 42.0785 25.7304 42.2255C26.4531 42.4993 27.247 42.4596 28.0177 42.4213C28.1221 41.8555 28.0086 41.2712 27.7001 40.7856Z" fill="#303D5C"/>
<g opacity="0.1">
<path opacity="0.1" d="M16.2133 55.9225C17.1405 53.9449 17.628 51.7899 17.6423 49.6058C17.6491 48.5382 17.6135 47.2981 18.4362 46.6178C18.6552 46.4358 18.9536 46.2551 18.9399 45.9704C18.9183 45.84 18.8719 45.715 18.803 45.6022C18.599 45.167 18.6661 44.6441 18.8577 44.2061C19.0757 43.7767 19.3572 43.3827 19.6927 43.0372C19.9322 42.7635 20.1827 42.4801 20.2717 42.1284C20.3176 41.911 20.3259 41.6874 20.2963 41.4673C20.2142 40.6337 19.9706 39.7605 20.2868 38.9844C20.6974 37.9907 21.8458 37.565 22.9135 37.3789C22.8206 37.3493 22.722 37.3427 22.626 37.3597C21.531 37.5363 20.3128 37.9578 19.8884 38.9844C19.5723 39.7605 19.8173 40.6337 19.898 41.4673C19.9287 41.6873 19.9208 41.911 19.8748 42.1284C19.7844 42.4801 19.5353 42.7648 19.2944 43.0372C18.9597 43.383 18.6787 43.7771 18.4608 44.2061C18.2637 44.6441 18.2007 45.1642 18.4047 45.6022C18.4741 45.7148 18.5206 45.8399 18.5416 45.9704C18.5552 46.2551 18.2568 46.4358 18.0378 46.6178C17.2166 47.3022 17.2508 48.5341 17.2439 49.6058C17.2305 51.7892 16.7454 53.944 15.8218 55.9225C16.1474 56.0908 16.5153 56.1598 16.8799 56.121C16.6469 56.0986 16.4205 56.0312 16.2133 55.9225Z" fill="black"/>
<path opacity="0.1" d="M17.8817 57.0477C18.0923 56.595 18.2551 56.1216 18.3676 55.6351C18.2271 55.7637 18.0673 55.8694 17.894 55.9486C17.7872 56.3242 17.6499 56.6904 17.4834 57.0436C17.6836 57.1388 17.909 57.1676 18.1267 57.1257C18.0421 57.1101 17.9598 57.0839 17.8817 57.0477Z" fill="black"/>
<path opacity="0.1" d="M23.8538 38.827C24.0574 38.7478 24.2713 38.698 24.4889 38.6792H24.4136C24.2251 38.6694 24.036 38.6837 23.8511 38.7216C23.8524 38.7517 23.8538 38.7887 23.8538 38.827Z" fill="black"/>
<path opacity="0.1" d="M26.122 42.2214C25.7731 42.0743 25.4358 41.9009 25.1132 41.7026C25.0224 41.6446 24.9218 41.6037 24.8162 41.5822C24.7127 41.5729 24.6084 41.5793 24.5068 41.6014C24.581 41.6284 24.6525 41.6623 24.7204 41.7026C25.0435 41.9009 25.3812 42.0743 25.7305 42.2214C26.2746 42.4008 26.8478 42.4752 27.4196 42.4404C26.9779 42.4403 26.5393 42.3662 26.122 42.2214Z" fill="black"/>
<path opacity="0.1" d="M23.5294 41.511C23.5294 41.5412 23.5171 41.5713 23.5103 41.6014C23.6743 41.6258 23.8406 41.6304 24.0058 41.6151C23.8436 41.5982 23.6838 41.5633 23.5294 41.511Z" fill="black"/>
</g>
<path d="M16.5952 56.9614C16.6143 57.1377 16.5948 57.3161 16.538 57.4841C16.4813 57.6522 16.3887 57.8059 16.2667 57.9346C16.128 58.0684 15.9719 58.183 15.8027 58.2754C15.6395 58.3873 15.4516 58.4582 15.2552 58.4821C14.9904 58.4735 14.7388 58.3644 14.5516 58.1769C13.9713 57.6677 13.6811 56.9135 13.4128 56.1894C13.0583 55.2313 12.7051 54.2636 12.5532 53.2521C12.3903 52.1681 12.4601 51.0457 12.1494 49.9932C12.4232 49.4457 12.6011 48.8352 12.9146 48.3041C13.1135 47.9877 13.2896 47.6574 13.4415 47.3159C13.7326 46.5889 13.7655 45.784 13.5346 45.0356C13.5895 44.9998 13.6544 44.9824 13.7198 44.9858C13.7852 44.9893 13.8479 45.0134 13.8987 45.0548C13.9982 45.1402 14.0737 45.2501 14.1177 45.3737C14.2985 45.7959 14.3736 46.2558 14.3367 46.7137C14.3133 46.8238 14.3263 46.9386 14.3737 47.0408C14.4161 47.0932 14.4708 47.1343 14.5328 47.1606C14.5949 47.1868 14.6625 47.1974 14.7296 47.1914C15.0087 47.1776 15.2847 47.1274 15.5508 47.0422C16.3777 46.8312 17.2342 46.7604 18.0845 46.8328C18.2558 46.8378 18.4242 46.8788 18.5786 46.9532C18.655 46.9913 18.7192 47.0499 18.7642 47.1224C18.8091 47.1949 18.833 47.2785 18.8332 47.3638L16.8074 47.6608C16.6549 47.6694 16.5077 47.7195 16.3817 47.8059C16.3211 47.8516 16.2811 47.9195 16.2703 47.9946C16.2595 48.0697 16.2789 48.1461 16.3242 48.207C16.367 48.242 16.4128 48.2731 16.4611 48.3C16.513 48.3394 16.5549 48.3905 16.5832 48.4492C16.6114 48.5078 16.6253 48.5724 16.6237 48.6375C16.6221 48.7027 16.6051 48.7665 16.5739 48.8237C16.5428 48.8809 16.4985 48.9299 16.4447 48.9666C16.3937 48.9901 16.3473 49.0226 16.3078 49.0624C16.2257 49.1733 16.3352 49.3197 16.3708 49.4539C16.3861 49.5528 16.371 49.6541 16.3275 49.7443C16.284 49.8345 16.2141 49.9094 16.1271 49.9589C15.9514 50.0553 15.76 50.1197 15.5618 50.1492C15.164 50.2409 14.7765 50.3725 14.4052 50.542C14.2843 50.5852 14.1793 50.6639 14.104 50.7679C14.0041 50.9376 14.0698 51.1511 14.1383 51.3359L14.6666 52.7566C14.7487 52.9798 14.8322 53.2029 14.9404 53.4178C15.0772 53.6915 15.2401 53.957 15.3784 54.239C15.5166 54.521 15.607 54.766 15.7083 55.0342C15.9724 55.7583 16.5049 56.1963 16.5952 56.9614Z" fill="#EE8E9E"/>
<path d="M41.1897 47.7443H34.8755V53.8571H41.1897V47.7443Z" fill="url(#paint12_linear)"/>
<path d="M41.0814 47.8497H34.9849V53.7517H41.0814V47.8497Z" fill="#F9A825"/>
<path d="M40.0245 47.3844C39.9119 47.4681 39.8305 47.5871 39.7932 47.7224C39.7846 47.7503 39.7851 47.7803 39.7947 47.8078C39.8043 47.8354 39.8225 47.8592 39.8466 47.8757C39.8769 47.8854 39.9094 47.8854 39.9397 47.8757C40.0912 47.8489 40.2329 47.7823 40.3503 47.6827C40.3038 47.7075 40.2624 47.7409 40.2285 47.7813C40.2118 47.8017 40.2014 47.8265 40.1984 47.8528C40.1955 47.879 40.2003 47.9055 40.2121 47.9291C40.2289 47.9495 40.2497 47.9662 40.2733 47.9782C40.2968 47.9902 40.3226 47.9973 40.3489 47.9989C40.5442 48.0344 40.745 48.025 40.9362 47.9715C40.8471 48.0047 40.7646 48.0534 40.6925 48.1153C40.6567 48.1468 40.6282 48.1858 40.609 48.2296C40.5899 48.2733 40.5805 48.3207 40.5816 48.3685C40.5818 48.3864 40.5858 48.4041 40.5933 48.4204C40.6009 48.4367 40.6118 48.4512 40.6254 48.4629C40.6453 48.4755 40.6678 48.4834 40.6911 48.4862C40.8723 48.518 41.0575 48.518 41.2387 48.4862C41.2853 48.4843 41.3308 48.4708 41.371 48.4469C41.4112 48.423 41.4447 48.3895 41.4686 48.3493C41.4779 48.304 41.478 48.2572 41.4688 48.2118C41.4596 48.1664 41.4414 48.1233 41.4152 48.0851C41.3181 47.8762 41.2712 47.6475 41.2783 47.4172C41.2843 47.3707 41.2777 47.3234 41.2592 47.2803C41.229 47.2385 41.1864 47.2074 41.1374 47.1914C40.9444 47.1065 40.6816 46.9888 40.4667 47.0545C40.299 47.1343 40.1488 47.2464 40.0245 47.3844Z" fill="#EE8E9E"/>
<defs>
<linearGradient id="paint0_linear" x1="57.7437" y1="45.234" x2="57.7437" y2="39.1212" gradientUnits="userSpaceOnUse">
<stop stop-color="#808080" stop-opacity="0.25"/>
<stop offset="0.54" stop-color="#808080" stop-opacity="0.12"/>
<stop offset="1" stop-color="#808080" stop-opacity="0.1"/>
</linearGradient>
<linearGradient id="paint1_linear" x1="3331.42" y1="1998.78" x2="3331.42" y2="1725.78" gradientUnits="userSpaceOnUse">
<stop stop-color="#808080" stop-opacity="0.25"/>
<stop offset="0.54" stop-color="#808080" stop-opacity="0.12"/>
<stop offset="1" stop-color="#808080" stop-opacity="0.1"/>
</linearGradient>
<linearGradient id="paint2_linear" x1="4511.97" y1="2948.73" x2="4511.97" y2="2675.73" gradientUnits="userSpaceOnUse">
<stop stop-color="#808080" stop-opacity="0.25"/>
<stop offset="0.54" stop-color="#808080" stop-opacity="0.12"/>
<stop offset="1" stop-color="#808080" stop-opacity="0.1"/>
</linearGradient>
<linearGradient id="paint3_linear" x1="1891.08" y1="1561.86" x2="1891.08" y2="1288.87" gradientUnits="userSpaceOnUse">
<stop stop-color="#808080" stop-opacity="0.25"/>
<stop offset="0.54" stop-color="#808080" stop-opacity="0.12"/>
<stop offset="1" stop-color="#808080" stop-opacity="0.1"/>
</linearGradient>
<linearGradient id="paint4_linear" x1="2482.38" y1="1961.84" x2="2482.38" y2="1688.85" gradientUnits="userSpaceOnUse">
<stop stop-color="#808080" stop-opacity="0.25"/>
<stop offset="0.54" stop-color="#808080" stop-opacity="0.12"/>
<stop offset="1" stop-color="#808080" stop-opacity="0.1"/>
</linearGradient>
<linearGradient id="paint5_linear" x1="4860.06" y1="2946.73" x2="4860.06" y2="2673.73" gradientUnits="userSpaceOnUse">
<stop stop-color="#808080" stop-opacity="0.25"/>
<stop offset="0.54" stop-color="#808080" stop-opacity="0.12"/>
<stop offset="1" stop-color="#808080" stop-opacity="0.1"/>
</linearGradient>
<linearGradient id="paint6_linear" x1="5382.6" y1="1565.55" x2="5382.6" y2="1292.55" gradientUnits="userSpaceOnUse">
<stop stop-color="#808080" stop-opacity="0.25"/>
<stop offset="0.54" stop-color="#808080" stop-opacity="0.12"/>
<stop offset="1" stop-color="#808080" stop-opacity="0.1"/>
</linearGradient>
<linearGradient id="paint7_linear" x1="5350.35" y1="2453" x2="5350.35" y2="2180" gradientUnits="userSpaceOnUse">
<stop stop-color="#808080" stop-opacity="0.25"/>
<stop offset="0.54" stop-color="#808080" stop-opacity="0.12"/>
<stop offset="1" stop-color="#808080" stop-opacity="0.1"/>
</linearGradient>
<linearGradient id="paint8_linear" x1="5576.13" y1="2515.5" x2="5576.13" y2="2242.5" gradientUnits="userSpaceOnUse">
<stop stop-color="#808080" stop-opacity="0.25"/>
<stop offset="0.54" stop-color="#808080" stop-opacity="0.12"/>
<stop offset="1" stop-color="#808080" stop-opacity="0.1"/>
</linearGradient>
<linearGradient id="paint9_linear" x1="4624.15" y1="2849.29" x2="4624.15" y2="2576.3" gradientUnits="userSpaceOnUse">
<stop stop-color="#808080" stop-opacity="0.25"/>
<stop offset="0.54" stop-color="#808080" stop-opacity="0.12"/>
<stop offset="1" stop-color="#808080" stop-opacity="0.1"/>
</linearGradient>
<linearGradient id="paint10_linear" x1="4656.39" y1="2005.59" x2="4656.39" y2="1732.59" gradientUnits="userSpaceOnUse">
<stop stop-color="#808080" stop-opacity="0.25"/>
<stop offset="0.54" stop-color="#808080" stop-opacity="0.12"/>
<stop offset="1" stop-color="#808080" stop-opacity="0.1"/>
</linearGradient>
<linearGradient id="paint11_linear" x1="3737.47" y1="35456.8" x2="10521" y2="35456.8" gradientUnits="userSpaceOnUse">
<stop stop-color="#808080" stop-opacity="0.25"/>
<stop offset="0.54" stop-color="#808080" stop-opacity="0.12"/>
<stop offset="1" stop-color="#808080" stop-opacity="0.1"/>
</linearGradient>
<linearGradient id="paint12_linear" x1="1789.34" y1="2453" x2="1789.34" y2="2180" gradientUnits="userSpaceOnUse">
<stop stop-color="#808080" stop-opacity="0.25"/>
<stop offset="0.54" stop-color="#808080" stop-opacity="0.12"/>
<stop offset="1" stop-color="#808080" stop-opacity="0.1"/>
</linearGradient>
</defs>
</svg>
