<svg width="30" height="26" viewBox="0 0 30 26" fill="none" xmlns="http://www.w3.org/2000/svg">
<path fill-rule="evenodd" clip-rule="evenodd" d="M21.875 2.6875C21.875 4.0625 20.75 5.1875 19.375 5.1875C18 5.1875 16.875 4.0625 16.875 2.6875C16.875 1.3125 18 0.1875 19.375 0.1875C20.75 0.1875 21.875 1.3125 21.875 2.6875ZM0 19.5625C0 16.0625 2.75 13.3125 6.25 13.3125C9.75 13.3125 12.5 16.0625 12.5 19.5625C12.5 23.0625 9.75 25.8125 6.25 25.8125C2.75 25.8125 0 23.0625 0 19.5625ZM6.25 23.9375C3.875 23.9375 1.875 21.9375 1.875 19.5625C1.875 17.1875 3.875 15.1875 6.25 15.1875C8.625 15.1875 10.625 17.1875 10.625 19.5625C10.625 21.9375 8.625 23.9375 6.25 23.9375ZM23.875 12.0625C21.25 12.0625 19.125 11.0625 17.5 9.4375L16.5 8.4375L13.5 11.4375L16.25 14.3125V22.0625H13.75V15.8125L9.74999 12.3125C9.24999 11.9375 8.99999 11.3125 8.99999 10.5625C8.99999 9.9375 9.24999 9.3125 9.74999 8.8125L13.25 5.3125C13.625 4.8125 14.25 4.5625 15 4.5625C15.75 4.5625 16.375 4.8125 17 5.3125L19.375 7.6875C20.5 8.8125 22 9.5625 23.875 9.5625V12.0625ZM23.75 13.3125C20.25 13.3125 17.5 16.0625 17.5 19.5625C17.5 23.0625 20.25 25.8125 23.75 25.8125C27.25 25.8125 30 23.0625 30 19.5625C30 16.0625 27.25 13.3125 23.75 13.3125ZM19.375 19.5625C19.375 21.9375 21.375 23.9375 23.75 23.9375C26.125 23.9375 28.125 21.9375 28.125 19.5625C28.125 17.1875 26.125 15.1875 23.75 15.1875C21.375 15.1875 19.375 17.1875 19.375 19.5625Z" fill="#0B24FB"/>
</svg>
