<svg width="24" height="28" viewBox="0 0 24 28" fill="none" xmlns="http://www.w3.org/2000/svg">
<path fill-rule="evenodd" clip-rule="evenodd" d="M17 5.53125C17 8.29375 14.7625 10.5312 12 10.5312C9.2375 10.5312 7 8.29375 7 5.53125C7 2.76875 9.2375 0.53125 12 0.53125C14.7625 0.53125 17 2.76875 17 5.53125ZM14.5 5.53125C14.5 4.15625 13.375 3.03125 12 3.03125C10.625 3.03125 9.5 4.15625 9.5 5.53125C9.5 6.90625 10.625 8.03125 12 8.03125C13.375 8.03125 14.5 6.90625 14.5 5.53125ZM12 13.7187C9.05 10.9688 5.1 9.28125 0.75 9.28125V23.0312C5.1 23.0312 9.05 24.7187 12 27.4687C14.95 24.7312 18.9 23.0312 23.25 23.0312V9.28125C18.9 9.28125 14.95 10.9688 12 13.7187ZM12 24.2187C14.5875 22.3187 17.5875 21.1187 20.75 20.6937V12.0062C18.125 12.4812 15.6875 13.6937 13.7 15.5437L12 17.1312L10.3 15.5312C8.3125 13.6812 5.875 12.4687 3.25 11.9937V20.6812C6.4125 21.1062 9.425 22.3187 12 24.2187Z" fill="#0B24FB"/>
</svg>
